M48
; DRILL file {KiCad (5.1.5)-3} date 18-Feb-20 6:33:48
; FORMAT={-:-/ absolute / inch / decimal}
; #@! TF.CreationDate,2020-02-18T06:33:48+01:00
; #@! TF.GenerationSoftware,Kicad,Pcbnew,(5.1.5)-3
; #@! TF.FileFunction,Plated,1,2,PTH
FMAT,2
INCH
T1C0.0157
T2C0.0236
T3C0.0579
%
G90
G05
T1
X3.075Y-3.225
X3.16Y-4.155
X3.245Y-3.225
X3.415Y-3.225
X3.595Y-3.46
X3.7096Y-4.5202
X3.7165Y-5.28
X3.72Y-6.7806
X3.7244Y-6.035
X3.735Y-3.34
X3.83Y-6.78
X3.835Y-4.34
X3.8438Y-4.4688
X3.87Y-6.035
X3.875Y-5.28
X3.8848Y-4.5202
X3.9Y-3.895
X3.965Y-3.47
X3.965Y-3.51
X3.9652Y-3.4298
X3.9654Y-3.3896
X3.985Y-3.19
X4.2134Y-3.4678
X4.32Y-3.92
X4.38Y-3.24
X4.385Y-5.325
X4.395Y-6.82
X4.415Y-6.075
X4.455Y-4.545
X4.4604Y-5.2396
X4.465Y-4.49
X4.495Y-3.355
X4.495Y-5.975
X4.51Y-6.71
X4.5344Y-3.355
X4.5737Y-3.3565
X4.6131Y-3.3565
X4.6525Y-3.3565
X4.81Y-4.49
X4.81Y-4.545
X4.85Y-3.625
X4.85Y-3.815
X4.85Y-4.06
X4.98Y-6.82
X4.9946Y-5.2396
X4.995Y-5.325
X5.075Y-6.075
X5.085Y-6.71
X5.1Y-5.975
X5.23Y-4.49
X5.3123Y-7.4823
X5.96Y-4.4916
X6.31Y-5.235
X6.31Y-5.235
X6.49Y-4.06
X6.52Y-3.625
X6.52Y-3.84
X6.525Y-5.99
X6.5546Y-3.3646
X6.68Y-4.49
X6.745Y-5.255
X7.2Y-7.48
X7.2887Y-5.9963
X7.47Y-4.49
X7.635Y-6.75
X7.785Y-4.06
X7.795Y-5.245
X7.83Y-3.365
X8.025Y-5.995
X8.025Y-5.995
X8.0315Y-3.6315
X8.0315Y-3.8135
X8.06Y-3.365
X8.195Y-4.49
X8.25Y-5.2565
X8.25Y-5.2565
X8.425Y-6.75
X8.7887Y-5.9963
X8.975Y-4.485
X8.975Y-4.485
X9.165Y-6.74
X9.315Y-5.245
X9.495Y-6.74
X9.4973Y-5.9923
X9.4973Y-5.9923
X9.7054Y-3.3646
X9.71Y-4.49
X9.925Y-3.63
X9.925Y-3.865
X9.925Y-4.055
X9.965Y-3.365
X10.115Y-5.245
X10.2937Y-5.9963
X10.49Y-4.49
X10.49Y-4.49
X10.64Y-6.74
X10.835Y-5.245
X11.0323Y-5.9873
X11.0323Y-5.9873
X11.21Y-3.365
X11.21Y-4.485
X11.3837Y-6.7463
X11.425Y-3.625
X11.425Y-3.89
X11.425Y-4.06
X11.4546Y-3.3646
X11.61Y-5.25
X11.81Y-5.9916
X11.995Y-4.485
X11.995Y-4.485
X12.15Y-6.74
X12.29Y-5.245
X12.54Y-5.99
X12.54Y-5.99
X12.72Y-3.4435
X12.72Y-3.89
X12.72Y-4.075
X12.73Y-4.485
X12.795Y-7.49
X12.92Y-6.74
X13.115Y-5.25
X13.115Y-5.25
X13.31Y-5.985
X13.31Y-5.985
X13.5Y-4.485
X13.645Y-6.745
X13.82Y-3.365
X13.84Y-5.245
X13.84Y-5.245
X13.85Y-3.625
X13.85Y-3.915
X13.85Y-4.06
X14.0946Y-3.3646
X14.235Y-4.48
X14.443Y-6.743
X14.595Y-5.245
X14.715Y-7.485
X15.335Y-3.365
X15.53Y-5.245
X15.5846Y-3.3646
X15.59Y-7.48
X16.2287Y-4.4916
X16.255Y-5.25
X16.255Y-5.25
X16.285Y-3.4435
X16.285Y-3.94
X16.285Y-4.065
X16.675Y-7.485
X17.335Y-7.485
X17.39Y-5.245
X17.395Y-4.485
X17.4Y-3.365
X17.735Y-4.485
X17.755Y-5.2465
X17.755Y-5.2465
X17.785Y-3.625
X17.785Y-3.945
X17.785Y-4.06
X18.19Y-7.485
X3.0529Y-2.9353
X3.0529Y-2.9885
X3.0863Y-2.9353
X3.0863Y-2.9885
X3.1198Y-2.9353
X3.1198Y-2.9885
X3.1533Y-2.9353
X3.1533Y-2.9885
X3.1867Y-2.9353
X3.1867Y-2.9885
X3.2202Y-2.9353
X3.2202Y-2.9885
X3.2537Y-2.9353
X3.2537Y-2.9885
X3.2871Y-2.9353
X3.2871Y-2.9885
T3
X10.8475Y-3.18
X10.8991Y-3.1225
X11.0959Y-3.1028
X11.0975Y-3.08
X4.8475Y-3.18
X4.8991Y-3.1225
X5.0959Y-3.1028
X5.0975Y-3.08
X14.2225Y-3.18
X14.2741Y-3.1225
X14.4709Y-3.1028
X14.4725Y-3.08
X8.41Y-5.805
X8.4616Y-5.7475
X8.6584Y-5.7278
X8.66Y-5.705
X13.4725Y-3.18
X13.5241Y-3.1225
X13.7209Y-3.1028
X13.7225Y-3.08
X9.16Y-5.805
X9.2116Y-5.7475
X9.4084Y-5.7278
X9.41Y-5.705
X11.41Y-5.805
X11.4616Y-5.7475
X11.6584Y-5.7278
X11.66Y-5.705
X11.5975Y-4.305
X11.6491Y-4.2475
X11.8459Y-4.2278
X11.8475Y-4.205
X11.785Y-6.555
X11.8366Y-6.4975
X12.0334Y-6.4778
X12.035Y-6.455
X13.4725Y-5.055
X13.5241Y-4.9975
X13.7209Y-4.9778
X13.7225Y-4.955
X13.8475Y-4.305
X13.8991Y-4.2475
X14.0959Y-4.2278
X14.0975Y-4.205
X18.7225Y-4.305
X18.7741Y-4.2475
X18.9709Y-4.2278
X18.9725Y-4.205
X8.9725Y-5.055
X9.0241Y-4.9975
X9.2209Y-4.9778
X9.2225Y-4.955
X12.4413Y-7.305
X12.4928Y-7.2475
X12.6897Y-7.2278
X12.6913Y-7.205
X3.91Y-6.555
X3.9616Y-6.4975
X4.1584Y-6.4778
X4.16Y-6.455
X17.785Y-4.305
X17.8366Y-4.2475
X18.0334Y-4.2278
X18.035Y-4.205
X3.16Y-7.305
X3.2116Y-7.2475
X3.4084Y-7.2278
X3.41Y-7.205
X6.7225Y-3.18
X6.7741Y-3.1225
X6.9709Y-3.1028
X6.9725Y-3.08
X12.16Y-5.805
X12.2116Y-5.7475
X12.4084Y-5.7278
X12.41Y-5.705
X7.0975Y-4.305
X7.1491Y-4.2475
X7.3459Y-4.2278
X7.3475Y-4.205
X10.66Y-5.805
X10.7116Y-5.7475
X10.9084Y-5.7278
X10.91Y-5.705
X12.535Y-6.555
X12.5866Y-6.4975
X12.7834Y-6.4778
X12.785Y-6.455
X10.8475Y-4.305
X10.8991Y-4.2475
X11.0959Y-4.2278
X11.0975Y-4.205
X11.9725Y-5.055
X12.0241Y-4.9975
X12.2209Y-4.9778
X12.2225Y-4.955
X13.0975Y-4.305
X13.1491Y-4.2475
X13.3459Y-4.2278
X13.3475Y-4.205
X17.785Y-5.055
X17.8366Y-4.9975
X18.0334Y-4.9778
X18.035Y-4.955
X8.2225Y-5.055
X8.2741Y-4.9975
X8.4709Y-4.9778
X8.4725Y-4.955
X5.1288Y-5.805
X5.1803Y-5.7475
X5.3772Y-5.7278
X5.3788Y-5.705
X5.3163Y-6.555
X5.3678Y-6.4975
X5.5647Y-6.4778
X5.5663Y-6.455
X3.16Y-4.305
X3.2116Y-4.2475
X3.4084Y-4.2278
X3.41Y-4.205
X17.035Y-4.305
X17.0866Y-4.2475
X17.2834Y-4.2278
X17.285Y-4.205
X5.035Y-5.055
X5.0866Y-4.9975
X5.2834Y-4.9778
X5.285Y-4.955
X14.6913Y-6.555
X14.7428Y-6.4975
X14.9397Y-6.4778
X14.9413Y-6.455
X8.2225Y-3.18
X8.2741Y-3.1225
X8.4709Y-3.1028
X8.4725Y-3.08
X11.5975Y-3.18
X11.6491Y-3.1225
X11.8459Y-3.1028
X11.8475Y-3.08
X17.785Y-3.18
X17.8366Y-3.1225
X18.0334Y-3.1028
X18.035Y-3.08
X17.035Y-3.18
X17.0866Y-3.1225
X17.2834Y-3.1028
X17.285Y-3.08
X6.3475Y-4.305
X6.3991Y-4.2475
X6.5959Y-4.2278
X6.5975Y-4.205
X5.5975Y-4.305
X5.6491Y-4.2475
X5.8459Y-4.2278
X5.8475Y-4.205
X7.66Y-5.805
X7.7116Y-5.7475
X7.9084Y-5.7278
X7.91Y-5.705
X9.535Y-6.555
X9.5866Y-6.4975
X9.7834Y-6.4778
X9.785Y-6.455
X6.7225Y-5.055
X6.7741Y-4.9975
X6.9709Y-4.9778
X6.9725Y-4.955
X10.285Y-6.555
X10.3366Y-6.4975
X10.5334Y-6.4778
X10.535Y-6.455
X10.4725Y-5.055
X10.5241Y-4.9975
X10.7209Y-4.9778
X10.7225Y-4.955
X7.285Y-6.555
X7.3366Y-6.4975
X7.5334Y-6.4778
X7.535Y-6.455
X5.9725Y-5.055
X6.0241Y-4.9975
X6.2209Y-4.9778
X6.2225Y-4.955
X17.035Y-5.055
X17.0866Y-4.9975
X17.2834Y-4.9778
X17.285Y-4.955
X3.91Y-5.055
X3.9616Y-4.9975
X4.1584Y-4.9778
X4.16Y-4.955
X3.91Y-5.805
X3.9616Y-5.7475
X4.1584Y-5.7278
X4.16Y-5.705
X3.16Y-5.805
X3.2116Y-5.7475
X3.4084Y-5.7278
X3.41Y-5.705
X3.91Y-7.305
X3.9616Y-7.2475
X4.1584Y-7.2278
X4.16Y-7.205
X18.9728Y-6.88
X19.0302Y-6.9316
X19.0499Y-7.1284
X19.0728Y-7.13
X7.8475Y-4.305
X7.8991Y-4.2475
X8.0959Y-4.2278
X8.0975Y-4.205
X14.9725Y-3.18
X15.0241Y-3.1225
X15.2209Y-3.1028
X15.2225Y-3.08
X8.5975Y-4.305
X8.6491Y-4.2475
X8.8459Y-4.2278
X8.8475Y-4.205
X12.91Y-5.805
X12.9616Y-5.7475
X13.1584Y-5.7278
X13.16Y-5.705
X8.035Y-6.555
X8.0866Y-6.4975
X8.2834Y-6.4778
X8.285Y-6.455
X18.7225Y-5.805
X18.7741Y-5.7475
X18.9709Y-5.7278
X18.9725Y-5.705
X18.7225Y-5.055
X18.7741Y-4.9975
X18.9709Y-4.9778
X18.9725Y-4.955
X10.0975Y-4.305
X10.1491Y-4.2475
X10.3459Y-4.2278
X10.3475Y-4.205
X17.035Y-7.305
X17.0866Y-7.2475
X17.2834Y-7.2278
X17.285Y-7.205
X3.16Y-5.055
X3.2116Y-4.9975
X3.4084Y-4.9778
X3.41Y-4.955
X13.3788Y-7.305
X13.4303Y-7.2475
X13.6272Y-7.2278
X13.6288Y-7.205
X9.6288Y-7.305
X9.6803Y-7.2475
X9.8772Y-7.2278
X9.8788Y-7.205
X5.8788Y-7.305
X5.9303Y-7.2475
X6.1272Y-7.2278
X6.1288Y-7.205
X9.3475Y-3.18
X9.3991Y-3.1225
X9.5959Y-3.1028
X9.5975Y-3.08
X16.285Y-3.18
X16.3366Y-3.1225
X16.5334Y-3.1028
X16.535Y-3.08
X9.7225Y-5.055
X9.7741Y-4.9975
X9.9709Y-4.9778
X9.9725Y-4.955
X9.91Y-5.805
X9.9616Y-5.7475
X10.1584Y-5.7278
X10.16Y-5.705
X8.785Y-6.555
X8.8366Y-6.4975
X9.0334Y-6.4778
X9.035Y-6.455
X16.285Y-4.305
X16.3366Y-4.2475
X16.5334Y-4.2278
X16.535Y-4.205
X17.785Y-7.305
X17.8366Y-7.2475
X18.0334Y-7.2278
X18.035Y-7.205
X16.285Y-5.055
X16.3366Y-4.9975
X16.5334Y-4.9778
X16.535Y-4.955
X6.8163Y-7.305
X6.8678Y-7.2475
X7.0647Y-7.2278
X7.0663Y-7.205
X3.91Y-4.305
X3.9616Y-4.2475
X4.1584Y-4.2278
X4.16Y-4.205
X9.3475Y-4.305
X9.3991Y-4.2475
X9.5959Y-4.2278
X9.5975Y-4.205
X14.9725Y-4.305
X15.0241Y-4.2475
X15.2209Y-4.2278
X15.2225Y-4.205
X7.4725Y-3.18
X7.5241Y-3.1225
X7.7209Y-3.1028
X7.7225Y-3.08
X13.285Y-6.555
X13.3366Y-6.4975
X13.5334Y-6.4778
X13.535Y-6.455
X4.8475Y-4.305
X4.8991Y-4.2475
X5.0959Y-4.2278
X5.0975Y-4.205
X11.035Y-6.555
X11.0866Y-6.4975
X11.2834Y-6.4778
X11.285Y-6.455
X6.535Y-6.555
X6.5866Y-6.4975
X6.7834Y-6.4778
X6.785Y-6.455
X6.16Y-5.805
X6.2116Y-5.7475
X6.4084Y-5.7278
X6.41Y-5.705
X12.7225Y-5.055
X12.7741Y-4.9975
X12.9709Y-4.9778
X12.9725Y-4.955
X15.16Y-5.055
X15.2116Y-4.9975
X15.4084Y-4.9778
X15.41Y-4.955
X7.4725Y-5.055
X7.5241Y-4.9975
X7.7209Y-4.9778
X7.7225Y-4.955
X14.3163Y-7.305
X14.3678Y-7.2475
X14.5647Y-7.2278
X14.5663Y-7.205
X3.16Y-6.555
X3.2116Y-6.4975
X3.4084Y-6.4778
X3.41Y-6.455
X5.9725Y-3.18
X6.0241Y-3.1225
X6.2209Y-3.1028
X6.2225Y-3.08
X12.7225Y-3.18
X12.7741Y-3.1225
X12.9709Y-3.1028
X12.9725Y-3.08
X10.0975Y-3.18
X10.1491Y-3.1225
X10.3459Y-3.1028
X10.3475Y-3.08
X6.91Y-5.805
X6.9616Y-5.7475
X7.1584Y-5.7278
X7.16Y-5.705
X17.035Y-6.555
X17.0866Y-6.4975
X17.2834Y-6.4778
X17.285Y-6.455
X13.66Y-5.805
X13.7116Y-5.7475
X13.9084Y-5.7278
X13.91Y-5.705
X14.2225Y-5.055
X14.2741Y-4.9975
X14.4709Y-4.9778
X14.4725Y-4.955
X12.3475Y-4.305
X12.3991Y-4.2475
X12.5959Y-4.2278
X12.5975Y-4.205
X16.285Y-7.305
X16.3366Y-7.2475
X16.5334Y-7.2278
X16.535Y-7.205
X11.2225Y-5.055
X11.2741Y-4.9975
X11.4709Y-4.9778
X11.4725Y-4.955
X15.2538Y-7.305
X15.3053Y-7.2475
X15.5022Y-7.2278
X15.5038Y-7.205
X4.9413Y-7.305
X4.9928Y-7.2475
X5.1897Y-7.2278
X5.1913Y-7.205
X14.8788Y-5.805
X14.9303Y-5.7475
X15.1272Y-5.7278
X15.1288Y-5.705
T2
G00X2.9997Y-2.8326
M15
G01X2.9997Y-2.8011
M16
G05
G00X2.9997Y-2.9794
M15
G01X2.9997Y-2.9204
M16
G05
G00X3.3403Y-2.8326
M15
G01X3.3403Y-2.8011
M16
G05
G00X3.3403Y-2.9794
M15
G01X3.3403Y-2.9204
M16
G05
T0
M30
