G04 #@! TF.GenerationSoftware,KiCad,Pcbnew,(5.1.5)-3*
G04 #@! TF.CreationDate,2020-02-18T06:33:41+01:00*
G04 #@! TF.ProjectId,CustomTKL101,43757374-6f6d-4544-9b4c-3130312e6b69,rev?*
G04 #@! TF.SameCoordinates,Original*
G04 #@! TF.FileFunction,Legend,Top*
G04 #@! TF.FilePolarity,Positive*
%FSLAX46Y46*%
G04 Gerber Fmt 4.6, Leading zero omitted, Abs format (unit mm)*
G04 Created by KiCad (PCBNEW (5.1.5)-3) date 2020-02-18 06:33:41*
%MOMM*%
%LPD*%
G04 APERTURE LIST*
%ADD10C,0.200000*%
%ADD11C,0.015000*%
%ADD12C,3.987800*%
%ADD13C,3.048000*%
%ADD14C,1.750000*%
%ADD15O,1.108000X2.216000*%
%ADD16C,0.650000*%
G04 APERTURE END LIST*
D10*
X76043000Y-69807000D02*
X76043000Y-70157000D01*
X84993000Y-69807000D02*
X76043000Y-69807000D01*
X84993000Y-70157000D02*
X84993000Y-69807000D01*
X84993000Y-76467000D02*
X76043000Y-76467000D01*
D11*
X81282041Y-77849713D02*
X81282041Y-78564106D01*
X81234415Y-78706985D01*
X81139163Y-78802237D01*
X80996284Y-78849863D01*
X80901032Y-78849863D01*
X82282191Y-78849863D02*
X81710677Y-78849863D01*
X81996434Y-78849863D02*
X81996434Y-77849713D01*
X81901182Y-77992592D01*
X81805929Y-78087844D01*
X81710677Y-78135470D01*
%LPC*%
D12*
X487623000Y-190500000D03*
X487623000Y-166624000D03*
D13*
X472383000Y-190500000D03*
X472383000Y-166624000D03*
D14*
X479368000Y-183642000D03*
X479368000Y-173482000D03*
D12*
X479368000Y-178562000D03*
X298380150Y-179832000D03*
X198380350Y-179832000D03*
D13*
X298380150Y-195072000D03*
X198380350Y-195072000D03*
D14*
X253460250Y-188087000D03*
X243300250Y-188087000D03*
D12*
X248380250Y-188087000D03*
X388905750Y-160782000D03*
X365029750Y-160782000D03*
D13*
X388905750Y-176022000D03*
X365029750Y-176022000D03*
D14*
X382047750Y-169037000D03*
X371887750Y-169037000D03*
D12*
X376967750Y-169037000D03*
X393668250Y-141732000D03*
X369792250Y-141732000D03*
D13*
X393668250Y-156972000D03*
X369792250Y-156972000D03*
D14*
X386810250Y-149987000D03*
X376650250Y-149987000D03*
D12*
X381730250Y-149987000D03*
X396049500Y-103632000D03*
X372173500Y-103632000D03*
D13*
X396049500Y-118872000D03*
X372173500Y-118872000D03*
D14*
X389191500Y-111887000D03*
X379031500Y-111887000D03*
D12*
X384111500Y-111887000D03*
X150780750Y-160782000D03*
X126904750Y-160782000D03*
D13*
X150780750Y-176022000D03*
X126904750Y-176022000D03*
D14*
X143922750Y-169037000D03*
X133762750Y-169037000D03*
D12*
X138842750Y-169037000D03*
D14*
X108204000Y-149987000D03*
X98044000Y-149987000D03*
D12*
X103124000Y-149987000D03*
D14*
X108204000Y-111887000D03*
X98044000Y-111887000D03*
D12*
X103124000Y-111887000D03*
D14*
X441579000Y-111887000D03*
X431419000Y-111887000D03*
D12*
X436499000Y-111887000D03*
D14*
X460629000Y-111887000D03*
X450469000Y-111887000D03*
D12*
X455549000Y-111887000D03*
D14*
X198691500Y-130937000D03*
X188531500Y-130937000D03*
D12*
X193611500Y-130937000D03*
D14*
X179641500Y-130937000D03*
X169481500Y-130937000D03*
D12*
X174561500Y-130937000D03*
D14*
X484441500Y-111887000D03*
X474281500Y-111887000D03*
D12*
X479361500Y-111887000D03*
D14*
X160591500Y-130937000D03*
X150431500Y-130937000D03*
D12*
X155511500Y-130937000D03*
D14*
X422529000Y-188087000D03*
X412369000Y-188087000D03*
D12*
X417449000Y-188087000D03*
D14*
X441579000Y-188087000D03*
X431419000Y-188087000D03*
D12*
X436499000Y-188087000D03*
D14*
X460629000Y-188087000D03*
X450469000Y-188087000D03*
D12*
X455549000Y-188087000D03*
D14*
X441579000Y-130937000D03*
X431419000Y-130937000D03*
D12*
X436499000Y-130937000D03*
D14*
X460629000Y-130937000D03*
X450469000Y-130937000D03*
D12*
X455549000Y-130937000D03*
D14*
X484441500Y-130937000D03*
X474281500Y-130937000D03*
D12*
X479361500Y-130937000D03*
D14*
X422529000Y-130937000D03*
X412369000Y-130937000D03*
D12*
X417449000Y-130937000D03*
D14*
X165354000Y-149987000D03*
X155194000Y-149987000D03*
D12*
X160274000Y-149987000D03*
D14*
X274891500Y-130937000D03*
X264731500Y-130937000D03*
D12*
X269811500Y-130937000D03*
D14*
X312991500Y-130937000D03*
X302831500Y-130937000D03*
D12*
X307911500Y-130937000D03*
D14*
X351091500Y-130937000D03*
X340931500Y-130937000D03*
D12*
X346011500Y-130937000D03*
D14*
X370141500Y-130937000D03*
X359981500Y-130937000D03*
D12*
X365061500Y-130937000D03*
D14*
X217741500Y-130937000D03*
X207581500Y-130937000D03*
D12*
X212661500Y-130937000D03*
D14*
X236791500Y-130937000D03*
X226631500Y-130937000D03*
D12*
X231711500Y-130937000D03*
D14*
X293941500Y-130937000D03*
X283781500Y-130937000D03*
D12*
X288861500Y-130937000D03*
D14*
X332041500Y-130937000D03*
X321881500Y-130937000D03*
D12*
X326961500Y-130937000D03*
D14*
X255841500Y-130937000D03*
X245681500Y-130937000D03*
D12*
X250761500Y-130937000D03*
D14*
X132016500Y-111887000D03*
X121856500Y-111887000D03*
D12*
X126936500Y-111887000D03*
D14*
X227266500Y-111887000D03*
X217106500Y-111887000D03*
D12*
X222186500Y-111887000D03*
D14*
X151066500Y-111887000D03*
X140906500Y-111887000D03*
D12*
X145986500Y-111887000D03*
D14*
X208216500Y-111887000D03*
X198056500Y-111887000D03*
D12*
X203136500Y-111887000D03*
D14*
X170116500Y-111887000D03*
X159956500Y-111887000D03*
D12*
X165036500Y-111887000D03*
D14*
X189166500Y-111887000D03*
X179006500Y-111887000D03*
D12*
X184086500Y-111887000D03*
D14*
X203454000Y-149987000D03*
X193294000Y-149987000D03*
D12*
X198374000Y-149987000D03*
D14*
X184404000Y-149987000D03*
X174244000Y-149987000D03*
D12*
X179324000Y-149987000D03*
D14*
X222504000Y-149987000D03*
X212344000Y-149987000D03*
D12*
X217424000Y-149987000D03*
D14*
X260604000Y-149987000D03*
X250444000Y-149987000D03*
D12*
X255524000Y-149987000D03*
D14*
X279654000Y-149987000D03*
X269494000Y-149987000D03*
D12*
X274574000Y-149987000D03*
D14*
X317754000Y-149987000D03*
X307594000Y-149987000D03*
D12*
X312674000Y-149987000D03*
D14*
X336804000Y-149987000D03*
X326644000Y-149987000D03*
D12*
X331724000Y-149987000D03*
D14*
X241554000Y-149987000D03*
X231394000Y-149987000D03*
D12*
X236474000Y-149987000D03*
D14*
X298704000Y-149987000D03*
X288544000Y-149987000D03*
D12*
X293624000Y-149987000D03*
D14*
X346329000Y-169037000D03*
X336169000Y-169037000D03*
D12*
X341249000Y-169037000D03*
D14*
X441579000Y-169037000D03*
X431419000Y-169037000D03*
D12*
X436499000Y-169037000D03*
D14*
X289179000Y-169037000D03*
X279019000Y-169037000D03*
D12*
X284099000Y-169037000D03*
D14*
X251079000Y-169037000D03*
X240919000Y-169037000D03*
D12*
X245999000Y-169037000D03*
D14*
X355854000Y-149987000D03*
X345694000Y-149987000D03*
D12*
X350774000Y-149987000D03*
D14*
X174879000Y-169037000D03*
X164719000Y-169037000D03*
D12*
X169799000Y-169037000D03*
D14*
X232029000Y-169037000D03*
X221869000Y-169037000D03*
D12*
X226949000Y-169037000D03*
D14*
X484441500Y-149987000D03*
X474281500Y-149987000D03*
D12*
X479361500Y-149987000D03*
D14*
X193929000Y-169037000D03*
X183769000Y-169037000D03*
D12*
X188849000Y-169037000D03*
D14*
X212979000Y-169037000D03*
X202819000Y-169037000D03*
D12*
X207899000Y-169037000D03*
D14*
X308229000Y-169037000D03*
X298069000Y-169037000D03*
D12*
X303149000Y-169037000D03*
D14*
X327279000Y-169037000D03*
X317119000Y-169037000D03*
D12*
X322199000Y-169037000D03*
D14*
X270129000Y-169037000D03*
X259969000Y-169037000D03*
D12*
X265049000Y-169037000D03*
D14*
X303466500Y-111887000D03*
X293306500Y-111887000D03*
D12*
X298386500Y-111887000D03*
D14*
X284416500Y-111887000D03*
X274256500Y-111887000D03*
D12*
X279336500Y-111887000D03*
D14*
X322516500Y-111887000D03*
X312356500Y-111887000D03*
D12*
X317436500Y-111887000D03*
D14*
X265366500Y-111887000D03*
X255206500Y-111887000D03*
D12*
X260286500Y-111887000D03*
D14*
X360616500Y-111887000D03*
X350456500Y-111887000D03*
D12*
X355536500Y-111887000D03*
D14*
X341566500Y-111887000D03*
X331406500Y-111887000D03*
D12*
X336486500Y-111887000D03*
D14*
X422529000Y-111887000D03*
X412369000Y-111887000D03*
D12*
X417449000Y-111887000D03*
D14*
X246316500Y-111887000D03*
X236156500Y-111887000D03*
D12*
X241236500Y-111887000D03*
X131699000Y-130937000D03*
D14*
X126619000Y-130937000D03*
X136779000Y-130937000D03*
D12*
X388874000Y-130937000D03*
D14*
X383794000Y-130937000D03*
X393954000Y-130937000D03*
D12*
X134080250Y-149987000D03*
D14*
X129000250Y-149987000D03*
X139160250Y-149987000D03*
D12*
X129317750Y-188087000D03*
D14*
X124237750Y-188087000D03*
X134397750Y-188087000D03*
D12*
X391255250Y-188087000D03*
D14*
X386175250Y-188087000D03*
X396335250Y-188087000D03*
D12*
X319817750Y-188087000D03*
D14*
X314737750Y-188087000D03*
X324897750Y-188087000D03*
D12*
X176942750Y-188087000D03*
D14*
X171862750Y-188087000D03*
X182022750Y-188087000D03*
D12*
X153130250Y-188087000D03*
D14*
X148050250Y-188087000D03*
X158210250Y-188087000D03*
D12*
X367442750Y-188087000D03*
D14*
X362362750Y-188087000D03*
X372522750Y-188087000D03*
D12*
X343630250Y-188087000D03*
D14*
X338550250Y-188087000D03*
X348710250Y-188087000D03*
X89154000Y-130937000D03*
X78994000Y-130937000D03*
D12*
X84074000Y-130937000D03*
D14*
X108204000Y-130937000D03*
X98044000Y-130937000D03*
D12*
X103124000Y-130937000D03*
D14*
X108204000Y-188087000D03*
X98044000Y-188087000D03*
D12*
X103124000Y-188087000D03*
D14*
X89154000Y-188087000D03*
X78994000Y-188087000D03*
D12*
X84074000Y-188087000D03*
D14*
X89154000Y-149987000D03*
X78994000Y-149987000D03*
D12*
X84074000Y-149987000D03*
D14*
X89154000Y-111887000D03*
X78994000Y-111887000D03*
D12*
X84074000Y-111887000D03*
D14*
X108204000Y-169037000D03*
X98044000Y-169037000D03*
D12*
X103124000Y-169037000D03*
D14*
X89154000Y-169037000D03*
X78994000Y-169037000D03*
D12*
X84074000Y-169037000D03*
D14*
X132016500Y-83312000D03*
X121856500Y-83312000D03*
D12*
X126936500Y-83312000D03*
D14*
X160591500Y-83312000D03*
X150431500Y-83312000D03*
D12*
X155511500Y-83312000D03*
D14*
X179641500Y-83312000D03*
X169481500Y-83312000D03*
D12*
X174561500Y-83312000D03*
D14*
X198691500Y-83312000D03*
X188531500Y-83312000D03*
D12*
X193611500Y-83312000D03*
D14*
X217741500Y-83312000D03*
X207581500Y-83312000D03*
D12*
X212661500Y-83312000D03*
D14*
X246316500Y-83312000D03*
X236156500Y-83312000D03*
D12*
X241236500Y-83312000D03*
D14*
X265366500Y-83312000D03*
X255206500Y-83312000D03*
D12*
X260286500Y-83312000D03*
D14*
X284416500Y-83312000D03*
X274256500Y-83312000D03*
D12*
X279336500Y-83312000D03*
D14*
X303466500Y-83312000D03*
X293306500Y-83312000D03*
D12*
X298386500Y-83312000D03*
D14*
X332041500Y-83312000D03*
X321881500Y-83312000D03*
D12*
X326961500Y-83312000D03*
D14*
X351091500Y-83312000D03*
X340931500Y-83312000D03*
D12*
X346011500Y-83312000D03*
D14*
X370141500Y-83312000D03*
X359981500Y-83312000D03*
D12*
X365061500Y-83312000D03*
D14*
X389191500Y-83312000D03*
X379031500Y-83312000D03*
D12*
X384111500Y-83312000D03*
D14*
X422529000Y-83312000D03*
X412369000Y-83312000D03*
D12*
X417449000Y-83312000D03*
D14*
X441579000Y-83312000D03*
X431419000Y-83312000D03*
D12*
X436499000Y-83312000D03*
D14*
X460629000Y-83312000D03*
X450469000Y-83312000D03*
D12*
X455549000Y-83312000D03*
D15*
X84843000Y-71547000D03*
X76193000Y-71547000D03*
X76193000Y-74927000D03*
X84843000Y-74927000D03*
D16*
X83493000Y-74557000D03*
X82643000Y-74557000D03*
X81793000Y-74557000D03*
X80943000Y-74557000D03*
X80093000Y-74557000D03*
X79243000Y-74557000D03*
X78393000Y-74557000D03*
X77543000Y-74557000D03*
X77543000Y-75907000D03*
X78393000Y-75907000D03*
X79243000Y-75907000D03*
X80093000Y-75907000D03*
X80943000Y-75907000D03*
X81793000Y-75907000D03*
X82643000Y-75907000D03*
X83493000Y-75907000D03*
M02*
