M48
; DRILL file {KiCad (5.1.5)-3} date 18-Feb-20 6:33:48
; FORMAT={-:-/ absolute / inch / decimal}
; #@! TF.CreationDate,2020-02-18T06:33:48+01:00
; #@! TF.GenerationSoftware,Kicad,Pcbnew,(5.1.5)-3
; #@! TF.FileFunction,NonPlated,1,2,NPTH
FMAT,2
INCH
T1C0.0689
T2C0.1200
T3C0.1570
%
G90
G05
T1
X3.11Y-6.655
X3.51Y-6.655
X5.9225Y-3.28
X6.3225Y-3.28
X12.6725Y-3.28
X13.0725Y-3.28
X10.0475Y-3.28
X10.4475Y-3.28
X6.86Y-5.905
X7.26Y-5.905
X16.985Y-6.655
X17.385Y-6.655
X13.61Y-5.905
X14.01Y-5.905
X14.1725Y-5.155
X14.5725Y-5.155
X12.2975Y-4.405
X12.6975Y-4.405
X16.235Y-7.405
X16.635Y-7.405
X11.1725Y-5.155
X11.5725Y-5.155
X15.2037Y-7.405
X15.6037Y-7.405
X4.8913Y-7.405
X5.2912Y-7.405
X14.8287Y-5.905
X15.2287Y-5.905
X10.7975Y-3.28
X11.1975Y-3.28
X4.7975Y-3.28
X5.1975Y-3.28
X14.1725Y-3.28
X14.5725Y-3.28
X8.36Y-5.905
X8.76Y-5.905
X13.4225Y-3.28
X13.8225Y-3.28
X9.11Y-5.905
X9.51Y-5.905
X11.36Y-5.905
X11.76Y-5.905
X11.5475Y-4.405
X11.9475Y-4.405
X11.735Y-6.655
X12.135Y-6.655
X13.4225Y-5.155
X13.8225Y-5.155
X13.7975Y-4.405
X14.1975Y-4.405
X18.6725Y-4.405
X19.0725Y-4.405
X8.9225Y-5.155
X9.3225Y-5.155
X12.3912Y-7.405
X12.7912Y-7.405
X3.86Y-6.655
X4.26Y-6.655
X17.735Y-4.405
X18.135Y-4.405
X3.11Y-7.405
X3.51Y-7.405
X6.6725Y-3.28
X7.0725Y-3.28
X12.11Y-5.905
X12.51Y-5.905
X7.0475Y-4.405
X7.4475Y-4.405
X10.61Y-5.905
X11.01Y-5.905
X12.485Y-6.655
X12.885Y-6.655
X10.7975Y-4.405
X11.1975Y-4.405
X11.9225Y-5.155
X12.3225Y-5.155
X13.0475Y-4.405
X13.4475Y-4.405
X17.735Y-5.155
X18.135Y-5.155
X8.1725Y-5.155
X8.5725Y-5.155
X5.0788Y-5.905
X5.4787Y-5.905
X5.2663Y-6.655
X5.6662Y-6.655
X3.11Y-4.405
X3.51Y-4.405
X16.985Y-4.405
X17.385Y-4.405
X4.985Y-5.155
X5.385Y-5.155
X14.6412Y-6.655
X15.0412Y-6.655
X8.1725Y-3.28
X8.5725Y-3.28
X11.5475Y-3.28
X11.9475Y-3.28
X17.735Y-3.28
X18.135Y-3.28
X16.985Y-3.28
X17.385Y-3.28
X6.2975Y-4.405
X6.6975Y-4.405
X5.5475Y-4.405
X5.9475Y-4.405
X7.61Y-5.905
X8.01Y-5.905
X9.485Y-6.655
X9.885Y-6.655
X6.6725Y-5.155
X7.0725Y-5.155
X10.235Y-6.655
X10.635Y-6.655
X10.4225Y-5.155
X10.8225Y-5.155
X7.235Y-6.655
X7.635Y-6.655
X5.9225Y-5.155
X6.3225Y-5.155
X16.985Y-5.155
X17.385Y-5.155
X3.86Y-5.155
X4.26Y-5.155
X3.86Y-5.905
X4.26Y-5.905
X3.11Y-5.905
X3.51Y-5.905
X3.86Y-7.405
X4.26Y-7.405
X18.8728Y-6.83
X18.8728Y-7.23
X7.7975Y-4.405
X8.1975Y-4.405
X14.9225Y-3.28
X15.3225Y-3.28
X8.5475Y-4.405
X8.9475Y-4.405
X12.86Y-5.905
X13.26Y-5.905
X7.985Y-6.655
X8.385Y-6.655
X18.6725Y-5.905
X19.0725Y-5.905
X18.6725Y-5.155
X19.0725Y-5.155
X10.0475Y-4.405
X10.4475Y-4.405
X16.985Y-7.405
X17.385Y-7.405
X3.11Y-5.155
X3.51Y-5.155
X13.3287Y-7.405
X13.7287Y-7.405
X9.5787Y-7.405
X9.9787Y-7.405
X5.8287Y-7.405
X6.2287Y-7.405
X9.2975Y-3.28
X9.6975Y-3.28
X16.235Y-3.28
X16.635Y-3.28
X9.6725Y-5.155
X10.0725Y-5.155
X9.86Y-5.905
X10.26Y-5.905
X8.735Y-6.655
X9.135Y-6.655
X16.235Y-4.405
X16.635Y-4.405
X17.735Y-7.405
X18.135Y-7.405
X16.235Y-5.155
X16.635Y-5.155
X6.7662Y-7.405
X7.1662Y-7.405
X3.86Y-4.405
X4.26Y-4.405
X9.2975Y-4.405
X9.6975Y-4.405
X14.9225Y-4.405
X15.3225Y-4.405
X7.4225Y-3.28
X7.8225Y-3.28
X13.235Y-6.655
X13.635Y-6.655
X4.7975Y-4.405
X5.1975Y-4.405
X10.985Y-6.655
X11.385Y-6.655
X6.485Y-6.655
X6.885Y-6.655
X6.11Y-5.905
X6.51Y-5.905
X12.6725Y-5.155
X13.0725Y-5.155
X15.11Y-5.155
X15.51Y-5.155
X7.4225Y-5.155
X7.8225Y-5.155
X14.2662Y-7.405
X14.6662Y-7.405
T2
X14.5587Y-6.18
X15.4987Y-6.18
X4.9962Y-6.93
X5.9363Y-6.93
X14.3712Y-6.93
X15.3112Y-6.93
X18.5978Y-6.56
X18.5978Y-7.5
X7.8102Y-7.68
X11.7472Y-7.68
X14.6525Y-4.68
X15.5925Y-4.68
T3
X15.31Y-5.155
X7.6225Y-5.155
X14.4663Y-7.405
X3.31Y-6.655
X6.1225Y-3.28
X12.8725Y-3.28
X10.2475Y-3.28
X7.06Y-5.905
X17.185Y-6.655
X13.81Y-5.905
X14.3725Y-5.155
X12.4975Y-4.405
X16.435Y-7.405
X11.3725Y-5.155
X15.4038Y-7.405
X5.0912Y-7.405
X14.5587Y-5.58
X15.0288Y-5.905
X15.4987Y-5.58
X10.9975Y-3.28
X4.9975Y-3.28
X14.3725Y-3.28
X8.56Y-5.905
X13.6225Y-3.28
X9.31Y-5.905
X11.56Y-5.905
X11.7475Y-4.405
X11.935Y-6.655
X13.6225Y-5.155
X13.9975Y-4.405
X18.8725Y-4.405
X9.1225Y-5.155
X12.5913Y-7.405
X4.06Y-6.655
X17.935Y-4.405
X3.31Y-7.405
X6.8725Y-3.28
X12.31Y-5.905
X7.2475Y-4.405
X10.81Y-5.905
X12.685Y-6.655
X10.9975Y-4.405
X12.1225Y-5.155
X13.2475Y-4.405
X17.935Y-5.155
X8.3725Y-5.155
X5.2787Y-5.905
X4.9962Y-6.33
X5.4662Y-6.655
X5.9363Y-6.33
X3.31Y-4.405
X17.185Y-4.405
X5.185Y-5.155
X14.3712Y-6.33
X14.8413Y-6.655
X15.3112Y-6.33
X8.3725Y-3.28
X11.7475Y-3.28
X17.935Y-3.28
X17.185Y-3.28
X6.4975Y-4.405
X5.7475Y-4.405
X7.81Y-5.905
X9.685Y-6.655
X6.8725Y-5.155
X10.435Y-6.655
X10.6225Y-5.155
X7.435Y-6.655
X6.1225Y-5.155
X17.185Y-5.155
X4.06Y-5.155
X4.06Y-5.905
X3.31Y-5.905
X4.06Y-7.405
X18.8728Y-7.03
X19.1978Y-6.56
X19.1978Y-7.5
X7.9975Y-4.405
X15.1225Y-3.28
X8.7475Y-4.405
X13.06Y-5.905
X8.185Y-6.655
X18.8725Y-5.905
X18.8725Y-5.155
X10.2475Y-4.405
X17.185Y-7.405
X3.31Y-5.155
X13.5288Y-7.405
X7.8102Y-7.08
X9.7788Y-7.405
X11.7472Y-7.08
X6.0287Y-7.405
X9.4975Y-3.28
X16.435Y-3.28
X9.8725Y-5.155
X10.06Y-5.905
X8.935Y-6.655
X16.435Y-4.405
X17.935Y-7.405
X16.435Y-5.155
X6.9662Y-7.405
X4.06Y-4.405
X9.4975Y-4.405
X14.6525Y-4.08
X15.1225Y-4.405
X15.5925Y-4.08
X7.6225Y-3.28
X13.435Y-6.655
X4.9975Y-4.405
X11.185Y-6.655
X6.685Y-6.655
X6.31Y-5.905
X12.8725Y-5.155
T0
M30
