G04 #@! TF.GenerationSoftware,KiCad,Pcbnew,(5.1.5)-3*
G04 #@! TF.CreationDate,2020-02-18T06:28:18+01:00*
G04 #@! TF.ProjectId,CustomTKL101,43757374-6f6d-4544-9b4c-3130312e6b69,rev?*
G04 #@! TF.SameCoordinates,Original*
G04 #@! TF.FileFunction,Soldermask,Bot*
G04 #@! TF.FilePolarity,Negative*
%FSLAX46Y46*%
G04 Gerber Fmt 4.6, Leading zero omitted, Abs format (unit mm)*
G04 Created by KiCad (PCBNEW (5.1.5)-3) date 2020-02-18 06:28:18*
%MOMM*%
%LPD*%
G04 APERTURE LIST*
%ADD10C,3.987800*%
%ADD11C,3.048000*%
%ADD12C,1.750000*%
%ADD13C,2.250000*%
%ADD14C,2.250000*%
%ADD15R,1.500000X0.550000*%
%ADD16R,0.550000X1.500000*%
%ADD17R,1.200000X0.900000*%
%ADD18R,0.900000X1.200000*%
%ADD19C,0.100000*%
%ADD20O,1.108000X2.216000*%
%ADD21C,0.650000*%
%ADD22R,1.100000X1.800000*%
%ADD23R,1.400000X1.200000*%
G04 APERTURE END LIST*
D10*
X487623000Y-190500000D03*
X487623000Y-166624000D03*
D11*
X472383000Y-190500000D03*
X472383000Y-166624000D03*
D12*
X479368000Y-183642000D03*
X479368000Y-173482000D03*
D13*
X483368000Y-176062000D03*
D10*
X479368000Y-178562000D03*
D14*
X481908000Y-174752000D02*
X483368000Y-176062002D01*
D13*
X484448000Y-181102000D03*
D14*
X483868000Y-181062000D02*
X484448000Y-181102000D01*
D10*
X298380150Y-179832000D03*
X198380350Y-179832000D03*
D11*
X298380150Y-195072000D03*
X198380350Y-195072000D03*
D12*
X253460250Y-188087000D03*
X243300250Y-188087000D03*
D13*
X245880250Y-184087000D03*
D10*
X248380250Y-188087000D03*
D14*
X244570250Y-185547000D02*
X245880252Y-184087000D01*
D13*
X250920250Y-183007000D03*
D14*
X250880250Y-183587000D02*
X250920250Y-183007000D01*
D10*
X388905750Y-160782000D03*
X365029750Y-160782000D03*
D11*
X388905750Y-176022000D03*
X365029750Y-176022000D03*
D12*
X382047750Y-169037000D03*
X371887750Y-169037000D03*
D13*
X374467750Y-165037000D03*
D10*
X376967750Y-169037000D03*
D14*
X373157750Y-166497000D02*
X374467752Y-165037000D01*
D13*
X379507750Y-163957000D03*
D14*
X379467750Y-164537000D02*
X379507750Y-163957000D01*
D10*
X393668250Y-141732000D03*
X369792250Y-141732000D03*
D11*
X393668250Y-156972000D03*
X369792250Y-156972000D03*
D12*
X386810250Y-149987000D03*
X376650250Y-149987000D03*
D13*
X379230250Y-145987000D03*
D10*
X381730250Y-149987000D03*
D14*
X377920250Y-147447000D02*
X379230252Y-145987000D01*
D13*
X384270250Y-144907000D03*
D14*
X384230250Y-145487000D02*
X384270250Y-144907000D01*
D10*
X396049500Y-103632000D03*
X372173500Y-103632000D03*
D11*
X396049500Y-118872000D03*
X372173500Y-118872000D03*
D12*
X389191500Y-111887000D03*
X379031500Y-111887000D03*
D13*
X381611500Y-107887000D03*
D10*
X384111500Y-111887000D03*
D14*
X380301500Y-109347000D02*
X381611502Y-107887000D01*
D13*
X386651500Y-106807000D03*
D14*
X386611500Y-107387000D02*
X386651500Y-106807000D01*
D10*
X150780750Y-160782000D03*
X126904750Y-160782000D03*
D11*
X150780750Y-176022000D03*
X126904750Y-176022000D03*
D12*
X143922750Y-169037000D03*
X133762750Y-169037000D03*
D13*
X136342750Y-165037000D03*
D10*
X138842750Y-169037000D03*
D14*
X135032750Y-166497000D02*
X136342752Y-165037000D01*
D13*
X141382750Y-163957000D03*
D14*
X141342750Y-164537000D02*
X141382750Y-163957000D01*
D15*
X98313000Y-93408000D03*
X98313000Y-92608000D03*
X98313000Y-91808000D03*
X98313000Y-91008000D03*
X98313000Y-90208000D03*
X98313000Y-89408000D03*
X98313000Y-88608000D03*
X98313000Y-87808000D03*
X98313000Y-87008000D03*
X98313000Y-86208000D03*
X98313000Y-85408000D03*
D16*
X100013000Y-83708000D03*
X100813000Y-83708000D03*
X101613000Y-83708000D03*
X102413000Y-83708000D03*
X103213000Y-83708000D03*
X104013000Y-83708000D03*
X104813000Y-83708000D03*
X105613000Y-83708000D03*
X106413000Y-83708000D03*
X107213000Y-83708000D03*
X108013000Y-83708000D03*
D15*
X109713000Y-85408000D03*
X109713000Y-86208000D03*
X109713000Y-87008000D03*
X109713000Y-87808000D03*
X109713000Y-88608000D03*
X109713000Y-89408000D03*
X109713000Y-90208000D03*
X109713000Y-91008000D03*
X109713000Y-91808000D03*
X109713000Y-92608000D03*
X109713000Y-93408000D03*
D16*
X108013000Y-95108000D03*
X107213000Y-95108000D03*
X106413000Y-95108000D03*
X105613000Y-95108000D03*
X104813000Y-95108000D03*
X104013000Y-95108000D03*
X103213000Y-95108000D03*
X102413000Y-95108000D03*
X101613000Y-95108000D03*
X100813000Y-95108000D03*
X100013000Y-95108000D03*
D12*
X108204000Y-149987000D03*
X98044000Y-149987000D03*
D10*
X103124000Y-149987000D03*
D13*
X105664000Y-144907000D03*
D14*
X105624000Y-145487000D02*
X105664000Y-144907000D01*
X99314000Y-147447000D02*
X100624002Y-145987000D01*
D13*
X100624000Y-145987000D03*
D12*
X108204000Y-111887000D03*
X98044000Y-111887000D03*
D10*
X103124000Y-111887000D03*
D13*
X105664000Y-106807000D03*
D14*
X105624000Y-107387000D02*
X105664000Y-106807000D01*
X99314000Y-109347000D02*
X100624002Y-107887000D01*
D13*
X100624000Y-107887000D03*
D12*
X441579000Y-111887000D03*
X431419000Y-111887000D03*
D10*
X436499000Y-111887000D03*
D13*
X439039000Y-106807000D03*
D14*
X438999000Y-107387000D02*
X439039000Y-106807000D01*
X432689000Y-109347000D02*
X433999002Y-107887000D01*
D13*
X433999000Y-107887000D03*
D12*
X460629000Y-111887000D03*
X450469000Y-111887000D03*
D10*
X455549000Y-111887000D03*
D13*
X458089000Y-106807000D03*
D14*
X458049000Y-107387000D02*
X458089000Y-106807000D01*
X451739000Y-109347000D02*
X453049002Y-107887000D01*
D13*
X453049000Y-107887000D03*
D12*
X198691500Y-130937000D03*
X188531500Y-130937000D03*
D10*
X193611500Y-130937000D03*
D13*
X196151500Y-125857000D03*
D14*
X196111500Y-126437000D02*
X196151500Y-125857000D01*
X189801500Y-128397000D02*
X191111502Y-126937000D01*
D13*
X191111500Y-126937000D03*
D12*
X179641500Y-130937000D03*
X169481500Y-130937000D03*
D10*
X174561500Y-130937000D03*
D13*
X177101500Y-125857000D03*
D14*
X177061500Y-126437000D02*
X177101500Y-125857000D01*
X170751500Y-128397000D02*
X172061502Y-126937000D01*
D13*
X172061500Y-126937000D03*
D12*
X484441500Y-111887000D03*
X474281500Y-111887000D03*
D10*
X479361500Y-111887000D03*
D13*
X481901500Y-106807000D03*
D14*
X481861500Y-107387000D02*
X481901500Y-106807000D01*
X475551500Y-109347000D02*
X476861502Y-107887000D01*
D13*
X476861500Y-107887000D03*
D12*
X160591500Y-130937000D03*
X150431500Y-130937000D03*
D10*
X155511500Y-130937000D03*
D13*
X158051500Y-125857000D03*
D14*
X158011500Y-126437000D02*
X158051500Y-125857000D01*
X151701500Y-128397000D02*
X153011502Y-126937000D01*
D13*
X153011500Y-126937000D03*
D12*
X422529000Y-188087000D03*
X412369000Y-188087000D03*
D10*
X417449000Y-188087000D03*
D13*
X419989000Y-183007000D03*
D14*
X419949000Y-183587000D02*
X419989000Y-183007000D01*
X413639000Y-185547000D02*
X414949002Y-184087000D01*
D13*
X414949000Y-184087000D03*
D12*
X441579000Y-188087000D03*
X431419000Y-188087000D03*
D10*
X436499000Y-188087000D03*
D13*
X439039000Y-183007000D03*
D14*
X438999000Y-183587000D02*
X439039000Y-183007000D01*
X432689000Y-185547000D02*
X433999002Y-184087000D01*
D13*
X433999000Y-184087000D03*
D12*
X460629000Y-188087000D03*
X450469000Y-188087000D03*
D10*
X455549000Y-188087000D03*
D13*
X458089000Y-183007000D03*
D14*
X458049000Y-183587000D02*
X458089000Y-183007000D01*
X451739000Y-185547000D02*
X453049002Y-184087000D01*
D13*
X453049000Y-184087000D03*
D12*
X441579000Y-130937000D03*
X431419000Y-130937000D03*
D10*
X436499000Y-130937000D03*
D13*
X439039000Y-125857000D03*
D14*
X438999000Y-126437000D02*
X439039000Y-125857000D01*
X432689000Y-128397000D02*
X433999002Y-126937000D01*
D13*
X433999000Y-126937000D03*
D12*
X460629000Y-130937000D03*
X450469000Y-130937000D03*
D10*
X455549000Y-130937000D03*
D13*
X458089000Y-125857000D03*
D14*
X458049000Y-126437000D02*
X458089000Y-125857000D01*
X451739000Y-128397000D02*
X453049002Y-126937000D01*
D13*
X453049000Y-126937000D03*
D12*
X484441500Y-130937000D03*
X474281500Y-130937000D03*
D10*
X479361500Y-130937000D03*
D13*
X481901500Y-125857000D03*
D14*
X481861500Y-126437000D02*
X481901500Y-125857000D01*
X475551500Y-128397000D02*
X476861502Y-126937000D01*
D13*
X476861500Y-126937000D03*
D12*
X422529000Y-130937000D03*
X412369000Y-130937000D03*
D10*
X417449000Y-130937000D03*
D13*
X419989000Y-125857000D03*
D14*
X419949000Y-126437000D02*
X419989000Y-125857000D01*
X413639000Y-128397000D02*
X414949002Y-126937000D01*
D13*
X414949000Y-126937000D03*
D12*
X165354000Y-149987000D03*
X155194000Y-149987000D03*
D10*
X160274000Y-149987000D03*
D13*
X162814000Y-144907000D03*
D14*
X162774000Y-145487000D02*
X162814000Y-144907000D01*
X156464000Y-147447000D02*
X157774002Y-145987000D01*
D13*
X157774000Y-145987000D03*
D12*
X274891500Y-130937000D03*
X264731500Y-130937000D03*
D10*
X269811500Y-130937000D03*
D13*
X272351500Y-125857000D03*
D14*
X272311500Y-126437000D02*
X272351500Y-125857000D01*
X266001500Y-128397000D02*
X267311502Y-126937000D01*
D13*
X267311500Y-126937000D03*
D12*
X312991500Y-130937000D03*
X302831500Y-130937000D03*
D10*
X307911500Y-130937000D03*
D13*
X310451500Y-125857000D03*
D14*
X310411500Y-126437000D02*
X310451500Y-125857000D01*
X304101500Y-128397000D02*
X305411502Y-126937000D01*
D13*
X305411500Y-126937000D03*
D12*
X351091500Y-130937000D03*
X340931500Y-130937000D03*
D10*
X346011500Y-130937000D03*
D13*
X348551500Y-125857000D03*
D14*
X348511500Y-126437000D02*
X348551500Y-125857000D01*
X342201500Y-128397000D02*
X343511502Y-126937000D01*
D13*
X343511500Y-126937000D03*
D12*
X370141500Y-130937000D03*
X359981500Y-130937000D03*
D10*
X365061500Y-130937000D03*
D13*
X367601500Y-125857000D03*
D14*
X367561500Y-126437000D02*
X367601500Y-125857000D01*
X361251500Y-128397000D02*
X362561502Y-126937000D01*
D13*
X362561500Y-126937000D03*
D12*
X217741500Y-130937000D03*
X207581500Y-130937000D03*
D10*
X212661500Y-130937000D03*
D13*
X215201500Y-125857000D03*
D14*
X215161500Y-126437000D02*
X215201500Y-125857000D01*
X208851500Y-128397000D02*
X210161502Y-126937000D01*
D13*
X210161500Y-126937000D03*
D12*
X236791500Y-130937000D03*
X226631500Y-130937000D03*
D10*
X231711500Y-130937000D03*
D13*
X234251500Y-125857000D03*
D14*
X234211500Y-126437000D02*
X234251500Y-125857000D01*
X227901500Y-128397000D02*
X229211502Y-126937000D01*
D13*
X229211500Y-126937000D03*
D12*
X293941500Y-130937000D03*
X283781500Y-130937000D03*
D10*
X288861500Y-130937000D03*
D13*
X291401500Y-125857000D03*
D14*
X291361500Y-126437000D02*
X291401500Y-125857000D01*
X285051500Y-128397000D02*
X286361502Y-126937000D01*
D13*
X286361500Y-126937000D03*
D12*
X332041500Y-130937000D03*
X321881500Y-130937000D03*
D10*
X326961500Y-130937000D03*
D13*
X329501500Y-125857000D03*
D14*
X329461500Y-126437000D02*
X329501500Y-125857000D01*
X323151500Y-128397000D02*
X324461502Y-126937000D01*
D13*
X324461500Y-126937000D03*
D12*
X255841500Y-130937000D03*
X245681500Y-130937000D03*
D10*
X250761500Y-130937000D03*
D13*
X253301500Y-125857000D03*
D14*
X253261500Y-126437000D02*
X253301500Y-125857000D01*
X246951500Y-128397000D02*
X248261502Y-126937000D01*
D13*
X248261500Y-126937000D03*
D12*
X132016500Y-111887000D03*
X121856500Y-111887000D03*
D10*
X126936500Y-111887000D03*
D13*
X129476500Y-106807000D03*
D14*
X129436500Y-107387000D02*
X129476500Y-106807000D01*
X123126500Y-109347000D02*
X124436502Y-107887000D01*
D13*
X124436500Y-107887000D03*
D12*
X227266500Y-111887000D03*
X217106500Y-111887000D03*
D10*
X222186500Y-111887000D03*
D13*
X224726500Y-106807000D03*
D14*
X224686500Y-107387000D02*
X224726500Y-106807000D01*
X218376500Y-109347000D02*
X219686502Y-107887000D01*
D13*
X219686500Y-107887000D03*
D12*
X151066500Y-111887000D03*
X140906500Y-111887000D03*
D10*
X145986500Y-111887000D03*
D13*
X148526500Y-106807000D03*
D14*
X148486500Y-107387000D02*
X148526500Y-106807000D01*
X142176500Y-109347000D02*
X143486502Y-107887000D01*
D13*
X143486500Y-107887000D03*
D12*
X208216500Y-111887000D03*
X198056500Y-111887000D03*
D10*
X203136500Y-111887000D03*
D13*
X205676500Y-106807000D03*
D14*
X205636500Y-107387000D02*
X205676500Y-106807000D01*
X199326500Y-109347000D02*
X200636502Y-107887000D01*
D13*
X200636500Y-107887000D03*
D12*
X170116500Y-111887000D03*
X159956500Y-111887000D03*
D10*
X165036500Y-111887000D03*
D13*
X167576500Y-106807000D03*
D14*
X167536500Y-107387000D02*
X167576500Y-106807000D01*
X161226500Y-109347000D02*
X162536502Y-107887000D01*
D13*
X162536500Y-107887000D03*
D12*
X189166500Y-111887000D03*
X179006500Y-111887000D03*
D10*
X184086500Y-111887000D03*
D13*
X186626500Y-106807000D03*
D14*
X186586500Y-107387000D02*
X186626500Y-106807000D01*
X180276500Y-109347000D02*
X181586502Y-107887000D01*
D13*
X181586500Y-107887000D03*
D12*
X203454000Y-149987000D03*
X193294000Y-149987000D03*
D10*
X198374000Y-149987000D03*
D13*
X200914000Y-144907000D03*
D14*
X200874000Y-145487000D02*
X200914000Y-144907000D01*
X194564000Y-147447000D02*
X195874002Y-145987000D01*
D13*
X195874000Y-145987000D03*
D12*
X184404000Y-149987000D03*
X174244000Y-149987000D03*
D10*
X179324000Y-149987000D03*
D13*
X181864000Y-144907000D03*
D14*
X181824000Y-145487000D02*
X181864000Y-144907000D01*
X175514000Y-147447000D02*
X176824002Y-145987000D01*
D13*
X176824000Y-145987000D03*
D12*
X222504000Y-149987000D03*
X212344000Y-149987000D03*
D10*
X217424000Y-149987000D03*
D13*
X219964000Y-144907000D03*
D14*
X219924000Y-145487000D02*
X219964000Y-144907000D01*
X213614000Y-147447000D02*
X214924002Y-145987000D01*
D13*
X214924000Y-145987000D03*
D12*
X260604000Y-149987000D03*
X250444000Y-149987000D03*
D10*
X255524000Y-149987000D03*
D13*
X258064000Y-144907000D03*
D14*
X258024000Y-145487000D02*
X258064000Y-144907000D01*
X251714000Y-147447000D02*
X253024002Y-145987000D01*
D13*
X253024000Y-145987000D03*
D12*
X279654000Y-149987000D03*
X269494000Y-149987000D03*
D10*
X274574000Y-149987000D03*
D13*
X277114000Y-144907000D03*
D14*
X277074000Y-145487000D02*
X277114000Y-144907000D01*
X270764000Y-147447000D02*
X272074002Y-145987000D01*
D13*
X272074000Y-145987000D03*
D12*
X317754000Y-149987000D03*
X307594000Y-149987000D03*
D10*
X312674000Y-149987000D03*
D13*
X315214000Y-144907000D03*
D14*
X315174000Y-145487000D02*
X315214000Y-144907000D01*
X308864000Y-147447000D02*
X310174002Y-145987000D01*
D13*
X310174000Y-145987000D03*
D12*
X336804000Y-149987000D03*
X326644000Y-149987000D03*
D10*
X331724000Y-149987000D03*
D13*
X334264000Y-144907000D03*
D14*
X334224000Y-145487000D02*
X334264000Y-144907000D01*
X327914000Y-147447000D02*
X329224002Y-145987000D01*
D13*
X329224000Y-145987000D03*
D12*
X241554000Y-149987000D03*
X231394000Y-149987000D03*
D10*
X236474000Y-149987000D03*
D13*
X239014000Y-144907000D03*
D14*
X238974000Y-145487000D02*
X239014000Y-144907000D01*
X232664000Y-147447000D02*
X233974002Y-145987000D01*
D13*
X233974000Y-145987000D03*
D12*
X298704000Y-149987000D03*
X288544000Y-149987000D03*
D10*
X293624000Y-149987000D03*
D13*
X296164000Y-144907000D03*
D14*
X296124000Y-145487000D02*
X296164000Y-144907000D01*
X289814000Y-147447000D02*
X291124002Y-145987000D01*
D13*
X291124000Y-145987000D03*
D12*
X346329000Y-169037000D03*
X336169000Y-169037000D03*
D10*
X341249000Y-169037000D03*
D13*
X343789000Y-163957000D03*
D14*
X343749000Y-164537000D02*
X343789000Y-163957000D01*
X337439000Y-166497000D02*
X338749002Y-165037000D01*
D13*
X338749000Y-165037000D03*
D12*
X441579000Y-169037000D03*
X431419000Y-169037000D03*
D10*
X436499000Y-169037000D03*
D13*
X439039000Y-163957000D03*
D14*
X438999000Y-164537000D02*
X439039000Y-163957000D01*
X432689000Y-166497000D02*
X433999002Y-165037000D01*
D13*
X433999000Y-165037000D03*
D12*
X289179000Y-169037000D03*
X279019000Y-169037000D03*
D10*
X284099000Y-169037000D03*
D13*
X286639000Y-163957000D03*
D14*
X286599000Y-164537000D02*
X286639000Y-163957000D01*
X280289000Y-166497000D02*
X281599002Y-165037000D01*
D13*
X281599000Y-165037000D03*
D12*
X251079000Y-169037000D03*
X240919000Y-169037000D03*
D10*
X245999000Y-169037000D03*
D13*
X248539000Y-163957000D03*
D14*
X248499000Y-164537000D02*
X248539000Y-163957000D01*
X242189000Y-166497000D02*
X243499002Y-165037000D01*
D13*
X243499000Y-165037000D03*
D12*
X355854000Y-149987000D03*
X345694000Y-149987000D03*
D10*
X350774000Y-149987000D03*
D13*
X353314000Y-144907000D03*
D14*
X353274000Y-145487000D02*
X353314000Y-144907000D01*
X346964000Y-147447000D02*
X348274002Y-145987000D01*
D13*
X348274000Y-145987000D03*
D12*
X174879000Y-169037000D03*
X164719000Y-169037000D03*
D10*
X169799000Y-169037000D03*
D13*
X172339000Y-163957000D03*
D14*
X172299000Y-164537000D02*
X172339000Y-163957000D01*
X165989000Y-166497000D02*
X167299002Y-165037000D01*
D13*
X167299000Y-165037000D03*
D12*
X232029000Y-169037000D03*
X221869000Y-169037000D03*
D10*
X226949000Y-169037000D03*
D13*
X229489000Y-163957000D03*
D14*
X229449000Y-164537000D02*
X229489000Y-163957000D01*
X223139000Y-166497000D02*
X224449002Y-165037000D01*
D13*
X224449000Y-165037000D03*
D12*
X484441500Y-149987000D03*
X474281500Y-149987000D03*
D10*
X479361500Y-149987000D03*
D13*
X481901500Y-144907000D03*
D14*
X481861500Y-145487000D02*
X481901500Y-144907000D01*
X475551500Y-147447000D02*
X476861502Y-145987000D01*
D13*
X476861500Y-145987000D03*
D12*
X193929000Y-169037000D03*
X183769000Y-169037000D03*
D10*
X188849000Y-169037000D03*
D13*
X191389000Y-163957000D03*
D14*
X191349000Y-164537000D02*
X191389000Y-163957000D01*
X185039000Y-166497000D02*
X186349002Y-165037000D01*
D13*
X186349000Y-165037000D03*
D12*
X212979000Y-169037000D03*
X202819000Y-169037000D03*
D10*
X207899000Y-169037000D03*
D13*
X210439000Y-163957000D03*
D14*
X210399000Y-164537000D02*
X210439000Y-163957000D01*
X204089000Y-166497000D02*
X205399002Y-165037000D01*
D13*
X205399000Y-165037000D03*
D12*
X308229000Y-169037000D03*
X298069000Y-169037000D03*
D10*
X303149000Y-169037000D03*
D13*
X305689000Y-163957000D03*
D14*
X305649000Y-164537000D02*
X305689000Y-163957000D01*
X299339000Y-166497000D02*
X300649002Y-165037000D01*
D13*
X300649000Y-165037000D03*
D12*
X327279000Y-169037000D03*
X317119000Y-169037000D03*
D10*
X322199000Y-169037000D03*
D13*
X324739000Y-163957000D03*
D14*
X324699000Y-164537000D02*
X324739000Y-163957000D01*
X318389000Y-166497000D02*
X319699002Y-165037000D01*
D13*
X319699000Y-165037000D03*
D12*
X270129000Y-169037000D03*
X259969000Y-169037000D03*
D10*
X265049000Y-169037000D03*
D13*
X267589000Y-163957000D03*
D14*
X267549000Y-164537000D02*
X267589000Y-163957000D01*
X261239000Y-166497000D02*
X262549002Y-165037000D01*
D13*
X262549000Y-165037000D03*
D12*
X303466500Y-111887000D03*
X293306500Y-111887000D03*
D10*
X298386500Y-111887000D03*
D13*
X300926500Y-106807000D03*
D14*
X300886500Y-107387000D02*
X300926500Y-106807000D01*
X294576500Y-109347000D02*
X295886502Y-107887000D01*
D13*
X295886500Y-107887000D03*
D12*
X284416500Y-111887000D03*
X274256500Y-111887000D03*
D10*
X279336500Y-111887000D03*
D13*
X281876500Y-106807000D03*
D14*
X281836500Y-107387000D02*
X281876500Y-106807000D01*
X275526500Y-109347000D02*
X276836502Y-107887000D01*
D13*
X276836500Y-107887000D03*
D12*
X322516500Y-111887000D03*
X312356500Y-111887000D03*
D10*
X317436500Y-111887000D03*
D13*
X319976500Y-106807000D03*
D14*
X319936500Y-107387000D02*
X319976500Y-106807000D01*
X313626500Y-109347000D02*
X314936502Y-107887000D01*
D13*
X314936500Y-107887000D03*
D12*
X265366500Y-111887000D03*
X255206500Y-111887000D03*
D10*
X260286500Y-111887000D03*
D13*
X262826500Y-106807000D03*
D14*
X262786500Y-107387000D02*
X262826500Y-106807000D01*
X256476500Y-109347000D02*
X257786502Y-107887000D01*
D13*
X257786500Y-107887000D03*
D12*
X360616500Y-111887000D03*
X350456500Y-111887000D03*
D10*
X355536500Y-111887000D03*
D13*
X358076500Y-106807000D03*
D14*
X358036500Y-107387000D02*
X358076500Y-106807000D01*
X351726500Y-109347000D02*
X353036502Y-107887000D01*
D13*
X353036500Y-107887000D03*
D12*
X341566500Y-111887000D03*
X331406500Y-111887000D03*
D10*
X336486500Y-111887000D03*
D13*
X339026500Y-106807000D03*
D14*
X338986500Y-107387000D02*
X339026500Y-106807000D01*
X332676500Y-109347000D02*
X333986502Y-107887000D01*
D13*
X333986500Y-107887000D03*
D12*
X422529000Y-111887000D03*
X412369000Y-111887000D03*
D10*
X417449000Y-111887000D03*
D13*
X419989000Y-106807000D03*
D14*
X419949000Y-107387000D02*
X419989000Y-106807000D01*
X413639000Y-109347000D02*
X414949002Y-107887000D01*
D13*
X414949000Y-107887000D03*
D12*
X246316500Y-111887000D03*
X236156500Y-111887000D03*
D10*
X241236500Y-111887000D03*
D13*
X243776500Y-106807000D03*
D14*
X243736500Y-107387000D02*
X243776500Y-106807000D01*
X237426500Y-109347000D02*
X238736502Y-107887000D01*
D13*
X238736500Y-107887000D03*
D14*
X134199000Y-126437000D02*
X134239000Y-125857000D01*
D13*
X134239000Y-125857000D03*
D14*
X127889000Y-128397000D02*
X129199002Y-126937000D01*
D10*
X131699000Y-130937000D03*
D13*
X129199000Y-126937000D03*
D12*
X126619000Y-130937000D03*
X136779000Y-130937000D03*
D14*
X391374000Y-126437000D02*
X391414000Y-125857000D01*
D13*
X391414000Y-125857000D03*
D14*
X385064000Y-128397000D02*
X386374002Y-126937000D01*
D10*
X388874000Y-130937000D03*
D13*
X386374000Y-126937000D03*
D12*
X383794000Y-130937000D03*
X393954000Y-130937000D03*
D14*
X136580250Y-145487000D02*
X136620250Y-144907000D01*
D13*
X136620250Y-144907000D03*
D14*
X130270250Y-147447000D02*
X131580252Y-145987000D01*
D10*
X134080250Y-149987000D03*
D13*
X131580250Y-145987000D03*
D12*
X129000250Y-149987000D03*
X139160250Y-149987000D03*
D14*
X131817750Y-183587000D02*
X131857750Y-183007000D01*
D13*
X131857750Y-183007000D03*
D14*
X125507750Y-185547000D02*
X126817752Y-184087000D01*
D10*
X129317750Y-188087000D03*
D13*
X126817750Y-184087000D03*
D12*
X124237750Y-188087000D03*
X134397750Y-188087000D03*
D14*
X393755250Y-183587000D02*
X393795250Y-183007000D01*
D13*
X393795250Y-183007000D03*
D14*
X387445250Y-185547000D02*
X388755252Y-184087000D01*
D10*
X391255250Y-188087000D03*
D13*
X388755250Y-184087000D03*
D12*
X386175250Y-188087000D03*
X396335250Y-188087000D03*
D14*
X322317750Y-183587000D02*
X322357750Y-183007000D01*
D13*
X322357750Y-183007000D03*
D14*
X316007750Y-185547000D02*
X317317752Y-184087000D01*
D10*
X319817750Y-188087000D03*
D13*
X317317750Y-184087000D03*
D12*
X314737750Y-188087000D03*
X324897750Y-188087000D03*
D14*
X179442750Y-183587000D02*
X179482750Y-183007000D01*
D13*
X179482750Y-183007000D03*
D14*
X173132750Y-185547000D02*
X174442752Y-184087000D01*
D10*
X176942750Y-188087000D03*
D13*
X174442750Y-184087000D03*
D12*
X171862750Y-188087000D03*
X182022750Y-188087000D03*
D14*
X155630250Y-183587000D02*
X155670250Y-183007000D01*
D13*
X155670250Y-183007000D03*
D14*
X149320250Y-185547000D02*
X150630252Y-184087000D01*
D10*
X153130250Y-188087000D03*
D13*
X150630250Y-184087000D03*
D12*
X148050250Y-188087000D03*
X158210250Y-188087000D03*
D14*
X369942750Y-183587000D02*
X369982750Y-183007000D01*
D13*
X369982750Y-183007000D03*
D14*
X363632750Y-185547000D02*
X364942752Y-184087000D01*
D10*
X367442750Y-188087000D03*
D13*
X364942750Y-184087000D03*
D12*
X362362750Y-188087000D03*
X372522750Y-188087000D03*
D14*
X346130250Y-183587000D02*
X346170250Y-183007000D01*
D13*
X346170250Y-183007000D03*
D14*
X339820250Y-185547000D02*
X341130252Y-184087000D01*
D10*
X343630250Y-188087000D03*
D13*
X341130250Y-184087000D03*
D12*
X338550250Y-188087000D03*
X348710250Y-188087000D03*
X89154000Y-130937000D03*
X78994000Y-130937000D03*
D10*
X84074000Y-130937000D03*
D13*
X86614000Y-125857000D03*
D14*
X86574000Y-126437000D02*
X86614000Y-125857000D01*
X80264000Y-128397000D02*
X81574002Y-126937000D01*
D13*
X81574000Y-126937000D03*
D12*
X108204000Y-130937000D03*
X98044000Y-130937000D03*
D10*
X103124000Y-130937000D03*
D13*
X105664000Y-125857000D03*
D14*
X105624000Y-126437000D02*
X105664000Y-125857000D01*
X99314000Y-128397000D02*
X100624002Y-126937000D01*
D13*
X100624000Y-126937000D03*
D12*
X108204000Y-188087000D03*
X98044000Y-188087000D03*
D10*
X103124000Y-188087000D03*
D13*
X105664000Y-183007000D03*
D14*
X105624000Y-183587000D02*
X105664000Y-183007000D01*
X99314000Y-185547000D02*
X100624002Y-184087000D01*
D13*
X100624000Y-184087000D03*
D12*
X89154000Y-188087000D03*
X78994000Y-188087000D03*
D10*
X84074000Y-188087000D03*
D13*
X86614000Y-183007000D03*
D14*
X86574000Y-183587000D02*
X86614000Y-183007000D01*
X80264000Y-185547000D02*
X81574002Y-184087000D01*
D13*
X81574000Y-184087000D03*
D12*
X89154000Y-149987000D03*
X78994000Y-149987000D03*
D10*
X84074000Y-149987000D03*
D13*
X86614000Y-144907000D03*
D14*
X86574000Y-145487000D02*
X86614000Y-144907000D01*
X80264000Y-147447000D02*
X81574002Y-145987000D01*
D13*
X81574000Y-145987000D03*
D12*
X89154000Y-111887000D03*
X78994000Y-111887000D03*
D10*
X84074000Y-111887000D03*
D13*
X86614000Y-106807000D03*
D14*
X86574000Y-107387000D02*
X86614000Y-106807000D01*
X80264000Y-109347000D02*
X81574002Y-107887000D01*
D13*
X81574000Y-107887000D03*
D12*
X108204000Y-169037000D03*
X98044000Y-169037000D03*
D10*
X103124000Y-169037000D03*
D13*
X105664000Y-163957000D03*
D14*
X105624000Y-164537000D02*
X105664000Y-163957000D01*
X99314000Y-166497000D02*
X100624002Y-165037000D01*
D13*
X100624000Y-165037000D03*
D12*
X89154000Y-169037000D03*
X78994000Y-169037000D03*
D10*
X84074000Y-169037000D03*
D13*
X86614000Y-163957000D03*
D14*
X86574000Y-164537000D02*
X86614000Y-163957000D01*
X80264000Y-166497000D02*
X81574002Y-165037000D01*
D13*
X81574000Y-165037000D03*
D17*
X92599000Y-129787000D03*
X92599000Y-133087000D03*
X445024000Y-110737000D03*
X445024000Y-114037000D03*
X111649000Y-129787000D03*
X111649000Y-133087000D03*
X487886500Y-110737000D03*
X487886500Y-114037000D03*
X140430250Y-129787000D03*
X140430250Y-133087000D03*
X164036500Y-129787000D03*
X164036500Y-133087000D03*
X183086500Y-129787000D03*
X183086500Y-133087000D03*
X202136500Y-129787000D03*
X202136500Y-133087000D03*
X464074000Y-110737000D03*
X464074000Y-114037000D03*
X92599000Y-186937000D03*
X92599000Y-190237000D03*
X185674000Y-186937000D03*
X185674000Y-190237000D03*
X111649000Y-186937000D03*
X111649000Y-190237000D03*
X161861500Y-186937000D03*
X161861500Y-190237000D03*
X376174000Y-186937000D03*
X376174000Y-190237000D03*
X464074000Y-186937000D03*
X464074000Y-190237000D03*
X328549000Y-186937000D03*
X328549000Y-190237000D03*
X399986500Y-186937000D03*
X399986500Y-190237000D03*
X425974000Y-186937000D03*
X425974000Y-190237000D03*
X445024000Y-186937000D03*
X445024000Y-190237000D03*
X138049000Y-186937000D03*
X138049000Y-190237000D03*
X352361500Y-186937000D03*
X352361500Y-190237000D03*
X257111500Y-186937000D03*
X257111500Y-190237000D03*
D18*
X481075000Y-187071000D03*
X477775000Y-187071000D03*
D17*
X487886500Y-129787000D03*
X487886500Y-133087000D03*
X168799000Y-148837000D03*
X168799000Y-152137000D03*
X92599000Y-148837000D03*
X92599000Y-152137000D03*
X425974000Y-129787000D03*
X425974000Y-133087000D03*
X464074000Y-129787000D03*
X464074000Y-133087000D03*
X397605250Y-129787000D03*
X397605250Y-133087000D03*
X445024000Y-129787000D03*
X445024000Y-133087000D03*
X111649000Y-148837000D03*
X111649000Y-152137000D03*
X142811500Y-148837000D03*
X142811500Y-152137000D03*
X316436500Y-129787000D03*
X316436500Y-133087000D03*
X354536500Y-129787000D03*
X354536500Y-133087000D03*
X373586500Y-129787000D03*
X373586500Y-133087000D03*
X335486500Y-129787000D03*
X335486500Y-133087000D03*
X297386500Y-129787000D03*
X297386500Y-133087000D03*
X240236500Y-129787000D03*
X240236500Y-133087000D03*
X278336500Y-129787000D03*
X278336500Y-133087000D03*
X221186500Y-129787000D03*
X221186500Y-133087000D03*
X259286500Y-129787000D03*
X259286500Y-133087000D03*
X111649000Y-110737000D03*
X111649000Y-114037000D03*
X173561500Y-110737000D03*
X173561500Y-114037000D03*
X230711500Y-110737000D03*
X230711500Y-114037000D03*
X92599000Y-110737000D03*
X92599000Y-114037000D03*
X154511500Y-110737000D03*
X154511500Y-114037000D03*
X192611500Y-110737000D03*
X192611500Y-114037000D03*
X211661500Y-110737000D03*
X211661500Y-114037000D03*
X135461500Y-110737000D03*
X135461500Y-114037000D03*
X206899000Y-148837000D03*
X206899000Y-152137000D03*
X225949000Y-148837000D03*
X225949000Y-152137000D03*
X283099000Y-148837000D03*
X283099000Y-152137000D03*
X302149000Y-148837000D03*
X302149000Y-152137000D03*
X264049000Y-148837000D03*
X264049000Y-152137000D03*
X321199000Y-148837000D03*
X321199000Y-152137000D03*
X340249000Y-148837000D03*
X340249000Y-152137000D03*
X187849000Y-148837000D03*
X187849000Y-152137000D03*
X244999000Y-148837000D03*
X244999000Y-152137000D03*
X349774000Y-167887000D03*
X349774000Y-171187000D03*
X292624000Y-167887000D03*
X292624000Y-171187000D03*
X273574000Y-167887000D03*
X273574000Y-171187000D03*
X197374000Y-167887000D03*
X197374000Y-171187000D03*
X385699000Y-167887000D03*
X385699000Y-171187000D03*
X390461500Y-148837000D03*
X390461500Y-152137000D03*
X235474000Y-167887000D03*
X235474000Y-171187000D03*
X311674000Y-167887000D03*
X311674000Y-171187000D03*
X445024000Y-167887000D03*
X445024000Y-171187000D03*
X111649000Y-167887000D03*
X111649000Y-171187000D03*
X178324000Y-167887000D03*
X178324000Y-171187000D03*
X487886500Y-148837000D03*
X487886500Y-152137000D03*
X359299000Y-148837000D03*
X359299000Y-152137000D03*
X216424000Y-167887000D03*
X216424000Y-171187000D03*
X92599000Y-167887000D03*
X92599000Y-171187000D03*
X254524000Y-167887000D03*
X254524000Y-171187000D03*
X147574000Y-167887000D03*
X147574000Y-171187000D03*
X330724000Y-167887000D03*
X330724000Y-171187000D03*
X268811500Y-110737000D03*
X268811500Y-114037000D03*
X249761500Y-110737000D03*
X249761500Y-114037000D03*
X345011500Y-110737000D03*
X345011500Y-114037000D03*
X392842750Y-110737000D03*
X392842750Y-114037000D03*
X287861500Y-110737000D03*
X287861500Y-114037000D03*
X364061500Y-110737000D03*
X364061500Y-114037000D03*
X325961500Y-110737000D03*
X325961500Y-114037000D03*
X306911500Y-110737000D03*
X306911500Y-114037000D03*
X425974000Y-110737000D03*
X425974000Y-114037000D03*
D12*
X132016500Y-83312000D03*
X121856500Y-83312000D03*
D10*
X126936500Y-83312000D03*
D13*
X129476500Y-78232000D03*
D14*
X129436500Y-78812000D02*
X129476500Y-78232000D01*
X123126500Y-80772000D02*
X124436502Y-79312000D01*
D13*
X124436500Y-79312000D03*
D17*
X135461500Y-82162000D03*
X135461500Y-85462000D03*
D12*
X160591500Y-83312000D03*
X150431500Y-83312000D03*
D10*
X155511500Y-83312000D03*
D13*
X158051500Y-78232000D03*
D14*
X158011500Y-78812000D02*
X158051500Y-78232000D01*
X151701500Y-80772000D02*
X153011502Y-79312000D01*
D13*
X153011500Y-79312000D03*
D17*
X164036500Y-82162000D03*
X164036500Y-85462000D03*
D12*
X179641500Y-83312000D03*
X169481500Y-83312000D03*
D10*
X174561500Y-83312000D03*
D13*
X177101500Y-78232000D03*
D14*
X177061500Y-78812000D02*
X177101500Y-78232000D01*
X170751500Y-80772000D02*
X172061502Y-79312000D01*
D13*
X172061500Y-79312000D03*
D17*
X183086500Y-82162000D03*
X183086500Y-85462000D03*
D12*
X198691500Y-83312000D03*
X188531500Y-83312000D03*
D10*
X193611500Y-83312000D03*
D13*
X196151500Y-78232000D03*
D14*
X196111500Y-78812000D02*
X196151500Y-78232000D01*
X189801500Y-80772000D02*
X191111502Y-79312000D01*
D13*
X191111500Y-79312000D03*
D17*
X202136500Y-82162000D03*
X202136500Y-85462000D03*
D12*
X217741500Y-83312000D03*
X207581500Y-83312000D03*
D10*
X212661500Y-83312000D03*
D13*
X215201500Y-78232000D03*
D14*
X215161500Y-78812000D02*
X215201500Y-78232000D01*
X208851500Y-80772000D02*
X210161502Y-79312000D01*
D13*
X210161500Y-79312000D03*
D17*
X221186500Y-82162000D03*
X221186500Y-85462000D03*
D12*
X246316500Y-83312000D03*
X236156500Y-83312000D03*
D10*
X241236500Y-83312000D03*
D13*
X243776500Y-78232000D03*
D14*
X243736500Y-78812000D02*
X243776500Y-78232000D01*
X237426500Y-80772000D02*
X238736502Y-79312000D01*
D13*
X238736500Y-79312000D03*
D17*
X249761500Y-82162000D03*
X249761500Y-85462000D03*
D12*
X265366500Y-83312000D03*
X255206500Y-83312000D03*
D10*
X260286500Y-83312000D03*
D13*
X262826500Y-78232000D03*
D14*
X262786500Y-78812000D02*
X262826500Y-78232000D01*
X256476500Y-80772000D02*
X257786502Y-79312000D01*
D13*
X257786500Y-79312000D03*
D17*
X268811500Y-82162000D03*
X268811500Y-85462000D03*
D12*
X284416500Y-83312000D03*
X274256500Y-83312000D03*
D10*
X279336500Y-83312000D03*
D13*
X281876500Y-78232000D03*
D14*
X281836500Y-78812000D02*
X281876500Y-78232000D01*
X275526500Y-80772000D02*
X276836502Y-79312000D01*
D13*
X276836500Y-79312000D03*
D17*
X287861500Y-82162000D03*
X287861500Y-85462000D03*
D12*
X303466500Y-83312000D03*
X293306500Y-83312000D03*
D10*
X298386500Y-83312000D03*
D13*
X300926500Y-78232000D03*
D14*
X300886500Y-78812000D02*
X300926500Y-78232000D01*
X294576500Y-80772000D02*
X295886502Y-79312000D01*
D13*
X295886500Y-79312000D03*
D17*
X306911500Y-82162000D03*
X306911500Y-85462000D03*
D12*
X332041500Y-83312000D03*
X321881500Y-83312000D03*
D10*
X326961500Y-83312000D03*
D13*
X329501500Y-78232000D03*
D14*
X329461500Y-78812000D02*
X329501500Y-78232000D01*
X323151500Y-80772000D02*
X324461502Y-79312000D01*
D13*
X324461500Y-79312000D03*
D17*
X335486500Y-82162000D03*
X335486500Y-85462000D03*
D12*
X351091500Y-83312000D03*
X340931500Y-83312000D03*
D10*
X346011500Y-83312000D03*
D13*
X348551500Y-78232000D03*
D14*
X348511500Y-78812000D02*
X348551500Y-78232000D01*
X342201500Y-80772000D02*
X343511502Y-79312000D01*
D13*
X343511500Y-79312000D03*
D17*
X354536500Y-82162000D03*
X354536500Y-85462000D03*
D12*
X370141500Y-83312000D03*
X359981500Y-83312000D03*
D10*
X365061500Y-83312000D03*
D13*
X367601500Y-78232000D03*
D14*
X367561500Y-78812000D02*
X367601500Y-78232000D01*
X361251500Y-80772000D02*
X362561502Y-79312000D01*
D13*
X362561500Y-79312000D03*
D17*
X373586500Y-82162000D03*
X373586500Y-85462000D03*
D12*
X389191500Y-83312000D03*
X379031500Y-83312000D03*
D10*
X384111500Y-83312000D03*
D13*
X386651500Y-78232000D03*
D14*
X386611500Y-78812000D02*
X386651500Y-78232000D01*
X380301500Y-80772000D02*
X381611502Y-79312000D01*
D13*
X381611500Y-79312000D03*
D17*
X392636500Y-82162000D03*
X392636500Y-85462000D03*
D12*
X422529000Y-83312000D03*
X412369000Y-83312000D03*
D10*
X417449000Y-83312000D03*
D13*
X419989000Y-78232000D03*
D14*
X419949000Y-78812000D02*
X419989000Y-78232000D01*
X413639000Y-80772000D02*
X414949002Y-79312000D01*
D13*
X414949000Y-79312000D03*
D17*
X425974000Y-82162000D03*
X425974000Y-85462000D03*
D12*
X441579000Y-83312000D03*
X431419000Y-83312000D03*
D10*
X436499000Y-83312000D03*
D13*
X439039000Y-78232000D03*
D14*
X438999000Y-78812000D02*
X439039000Y-78232000D01*
X432689000Y-80772000D02*
X433999002Y-79312000D01*
D13*
X433999000Y-79312000D03*
D17*
X445024000Y-82162000D03*
X445024000Y-85462000D03*
D12*
X460629000Y-83312000D03*
X450469000Y-83312000D03*
D10*
X455549000Y-83312000D03*
D13*
X458089000Y-78232000D03*
D14*
X458049000Y-78812000D02*
X458089000Y-78232000D01*
X451739000Y-80772000D02*
X453049002Y-79312000D01*
D13*
X453049000Y-79312000D03*
D17*
X464074000Y-82162000D03*
X464074000Y-85462000D03*
D19*
G36*
X93571142Y-83539174D02*
G01*
X93594803Y-83542684D01*
X93618007Y-83548496D01*
X93640529Y-83556554D01*
X93662153Y-83566782D01*
X93682670Y-83579079D01*
X93701883Y-83593329D01*
X93719607Y-83609393D01*
X93735671Y-83627117D01*
X93749921Y-83646330D01*
X93762218Y-83666847D01*
X93772446Y-83688471D01*
X93780504Y-83710993D01*
X93786316Y-83734197D01*
X93789826Y-83757858D01*
X93791000Y-83781750D01*
X93791000Y-84269250D01*
X93789826Y-84293142D01*
X93786316Y-84316803D01*
X93780504Y-84340007D01*
X93772446Y-84362529D01*
X93762218Y-84384153D01*
X93749921Y-84404670D01*
X93735671Y-84423883D01*
X93719607Y-84441607D01*
X93701883Y-84457671D01*
X93682670Y-84471921D01*
X93662153Y-84484218D01*
X93640529Y-84494446D01*
X93618007Y-84502504D01*
X93594803Y-84508316D01*
X93571142Y-84511826D01*
X93547250Y-84513000D01*
X92634750Y-84513000D01*
X92610858Y-84511826D01*
X92587197Y-84508316D01*
X92563993Y-84502504D01*
X92541471Y-84494446D01*
X92519847Y-84484218D01*
X92499330Y-84471921D01*
X92480117Y-84457671D01*
X92462393Y-84441607D01*
X92446329Y-84423883D01*
X92432079Y-84404670D01*
X92419782Y-84384153D01*
X92409554Y-84362529D01*
X92401496Y-84340007D01*
X92395684Y-84316803D01*
X92392174Y-84293142D01*
X92391000Y-84269250D01*
X92391000Y-83781750D01*
X92392174Y-83757858D01*
X92395684Y-83734197D01*
X92401496Y-83710993D01*
X92409554Y-83688471D01*
X92419782Y-83666847D01*
X92432079Y-83646330D01*
X92446329Y-83627117D01*
X92462393Y-83609393D01*
X92480117Y-83593329D01*
X92499330Y-83579079D01*
X92519847Y-83566782D01*
X92541471Y-83556554D01*
X92563993Y-83548496D01*
X92587197Y-83542684D01*
X92610858Y-83539174D01*
X92634750Y-83538000D01*
X93547250Y-83538000D01*
X93571142Y-83539174D01*
G37*
G36*
X93571142Y-85414174D02*
G01*
X93594803Y-85417684D01*
X93618007Y-85423496D01*
X93640529Y-85431554D01*
X93662153Y-85441782D01*
X93682670Y-85454079D01*
X93701883Y-85468329D01*
X93719607Y-85484393D01*
X93735671Y-85502117D01*
X93749921Y-85521330D01*
X93762218Y-85541847D01*
X93772446Y-85563471D01*
X93780504Y-85585993D01*
X93786316Y-85609197D01*
X93789826Y-85632858D01*
X93791000Y-85656750D01*
X93791000Y-86144250D01*
X93789826Y-86168142D01*
X93786316Y-86191803D01*
X93780504Y-86215007D01*
X93772446Y-86237529D01*
X93762218Y-86259153D01*
X93749921Y-86279670D01*
X93735671Y-86298883D01*
X93719607Y-86316607D01*
X93701883Y-86332671D01*
X93682670Y-86346921D01*
X93662153Y-86359218D01*
X93640529Y-86369446D01*
X93618007Y-86377504D01*
X93594803Y-86383316D01*
X93571142Y-86386826D01*
X93547250Y-86388000D01*
X92634750Y-86388000D01*
X92610858Y-86386826D01*
X92587197Y-86383316D01*
X92563993Y-86377504D01*
X92541471Y-86369446D01*
X92519847Y-86359218D01*
X92499330Y-86346921D01*
X92480117Y-86332671D01*
X92462393Y-86316607D01*
X92446329Y-86298883D01*
X92432079Y-86279670D01*
X92419782Y-86259153D01*
X92409554Y-86237529D01*
X92401496Y-86215007D01*
X92395684Y-86191803D01*
X92392174Y-86168142D01*
X92391000Y-86144250D01*
X92391000Y-85656750D01*
X92392174Y-85632858D01*
X92395684Y-85609197D01*
X92401496Y-85585993D01*
X92409554Y-85563471D01*
X92419782Y-85541847D01*
X92432079Y-85521330D01*
X92446329Y-85502117D01*
X92462393Y-85484393D01*
X92480117Y-85468329D01*
X92499330Y-85454079D01*
X92519847Y-85441782D01*
X92541471Y-85431554D01*
X92563993Y-85423496D01*
X92587197Y-85417684D01*
X92610858Y-85414174D01*
X92634750Y-85413000D01*
X93547250Y-85413000D01*
X93571142Y-85414174D01*
G37*
D20*
X84843000Y-71547000D03*
X76193000Y-71547000D03*
X76193000Y-74927000D03*
X84843000Y-74927000D03*
D21*
X83493000Y-74557000D03*
X82643000Y-74557000D03*
X81793000Y-74557000D03*
X80943000Y-74557000D03*
X80093000Y-74557000D03*
X79243000Y-74557000D03*
X78393000Y-74557000D03*
X77543000Y-74557000D03*
X77543000Y-75907000D03*
X78393000Y-75907000D03*
X79243000Y-75907000D03*
X80093000Y-75907000D03*
X80943000Y-75907000D03*
X81793000Y-75907000D03*
X82643000Y-75907000D03*
X83493000Y-75907000D03*
D22*
X88845000Y-90222000D03*
X85145000Y-84022000D03*
X85145000Y-90222000D03*
X88845000Y-84022000D03*
D23*
X104478000Y-77509000D03*
X102278000Y-77509000D03*
X102278000Y-79209000D03*
X104478000Y-79209000D03*
D19*
G36*
X112494142Y-95350174D02*
G01*
X112517803Y-95353684D01*
X112541007Y-95359496D01*
X112563529Y-95367554D01*
X112585153Y-95377782D01*
X112605670Y-95390079D01*
X112624883Y-95404329D01*
X112642607Y-95420393D01*
X112658671Y-95438117D01*
X112672921Y-95457330D01*
X112685218Y-95477847D01*
X112695446Y-95499471D01*
X112703504Y-95521993D01*
X112709316Y-95545197D01*
X112712826Y-95568858D01*
X112714000Y-95592750D01*
X112714000Y-96080250D01*
X112712826Y-96104142D01*
X112709316Y-96127803D01*
X112703504Y-96151007D01*
X112695446Y-96173529D01*
X112685218Y-96195153D01*
X112672921Y-96215670D01*
X112658671Y-96234883D01*
X112642607Y-96252607D01*
X112624883Y-96268671D01*
X112605670Y-96282921D01*
X112585153Y-96295218D01*
X112563529Y-96305446D01*
X112541007Y-96313504D01*
X112517803Y-96319316D01*
X112494142Y-96322826D01*
X112470250Y-96324000D01*
X111557750Y-96324000D01*
X111533858Y-96322826D01*
X111510197Y-96319316D01*
X111486993Y-96313504D01*
X111464471Y-96305446D01*
X111442847Y-96295218D01*
X111422330Y-96282921D01*
X111403117Y-96268671D01*
X111385393Y-96252607D01*
X111369329Y-96234883D01*
X111355079Y-96215670D01*
X111342782Y-96195153D01*
X111332554Y-96173529D01*
X111324496Y-96151007D01*
X111318684Y-96127803D01*
X111315174Y-96104142D01*
X111314000Y-96080250D01*
X111314000Y-95592750D01*
X111315174Y-95568858D01*
X111318684Y-95545197D01*
X111324496Y-95521993D01*
X111332554Y-95499471D01*
X111342782Y-95477847D01*
X111355079Y-95457330D01*
X111369329Y-95438117D01*
X111385393Y-95420393D01*
X111403117Y-95404329D01*
X111422330Y-95390079D01*
X111442847Y-95377782D01*
X111464471Y-95367554D01*
X111486993Y-95359496D01*
X111510197Y-95353684D01*
X111533858Y-95350174D01*
X111557750Y-95349000D01*
X112470250Y-95349000D01*
X112494142Y-95350174D01*
G37*
G36*
X112494142Y-97225174D02*
G01*
X112517803Y-97228684D01*
X112541007Y-97234496D01*
X112563529Y-97242554D01*
X112585153Y-97252782D01*
X112605670Y-97265079D01*
X112624883Y-97279329D01*
X112642607Y-97295393D01*
X112658671Y-97313117D01*
X112672921Y-97332330D01*
X112685218Y-97352847D01*
X112695446Y-97374471D01*
X112703504Y-97396993D01*
X112709316Y-97420197D01*
X112712826Y-97443858D01*
X112714000Y-97467750D01*
X112714000Y-97955250D01*
X112712826Y-97979142D01*
X112709316Y-98002803D01*
X112703504Y-98026007D01*
X112695446Y-98048529D01*
X112685218Y-98070153D01*
X112672921Y-98090670D01*
X112658671Y-98109883D01*
X112642607Y-98127607D01*
X112624883Y-98143671D01*
X112605670Y-98157921D01*
X112585153Y-98170218D01*
X112563529Y-98180446D01*
X112541007Y-98188504D01*
X112517803Y-98194316D01*
X112494142Y-98197826D01*
X112470250Y-98199000D01*
X111557750Y-98199000D01*
X111533858Y-98197826D01*
X111510197Y-98194316D01*
X111486993Y-98188504D01*
X111464471Y-98180446D01*
X111442847Y-98170218D01*
X111422330Y-98157921D01*
X111403117Y-98143671D01*
X111385393Y-98127607D01*
X111369329Y-98109883D01*
X111355079Y-98090670D01*
X111342782Y-98070153D01*
X111332554Y-98048529D01*
X111324496Y-98026007D01*
X111318684Y-98002803D01*
X111315174Y-97979142D01*
X111314000Y-97955250D01*
X111314000Y-97467750D01*
X111315174Y-97443858D01*
X111318684Y-97420197D01*
X111324496Y-97396993D01*
X111332554Y-97374471D01*
X111342782Y-97352847D01*
X111355079Y-97332330D01*
X111369329Y-97313117D01*
X111385393Y-97295393D01*
X111403117Y-97279329D01*
X111422330Y-97265079D01*
X111442847Y-97252782D01*
X111464471Y-97242554D01*
X111486993Y-97234496D01*
X111510197Y-97228684D01*
X111533858Y-97225174D01*
X111557750Y-97224000D01*
X112470250Y-97224000D01*
X112494142Y-97225174D01*
G37*
G36*
X93056142Y-94170174D02*
G01*
X93079803Y-94173684D01*
X93103007Y-94179496D01*
X93125529Y-94187554D01*
X93147153Y-94197782D01*
X93167670Y-94210079D01*
X93186883Y-94224329D01*
X93204607Y-94240393D01*
X93220671Y-94258117D01*
X93234921Y-94277330D01*
X93247218Y-94297847D01*
X93257446Y-94319471D01*
X93265504Y-94341993D01*
X93271316Y-94365197D01*
X93274826Y-94388858D01*
X93276000Y-94412750D01*
X93276000Y-95325250D01*
X93274826Y-95349142D01*
X93271316Y-95372803D01*
X93265504Y-95396007D01*
X93257446Y-95418529D01*
X93247218Y-95440153D01*
X93234921Y-95460670D01*
X93220671Y-95479883D01*
X93204607Y-95497607D01*
X93186883Y-95513671D01*
X93167670Y-95527921D01*
X93147153Y-95540218D01*
X93125529Y-95550446D01*
X93103007Y-95558504D01*
X93079803Y-95564316D01*
X93056142Y-95567826D01*
X93032250Y-95569000D01*
X92544750Y-95569000D01*
X92520858Y-95567826D01*
X92497197Y-95564316D01*
X92473993Y-95558504D01*
X92451471Y-95550446D01*
X92429847Y-95540218D01*
X92409330Y-95527921D01*
X92390117Y-95513671D01*
X92372393Y-95497607D01*
X92356329Y-95479883D01*
X92342079Y-95460670D01*
X92329782Y-95440153D01*
X92319554Y-95418529D01*
X92311496Y-95396007D01*
X92305684Y-95372803D01*
X92302174Y-95349142D01*
X92301000Y-95325250D01*
X92301000Y-94412750D01*
X92302174Y-94388858D01*
X92305684Y-94365197D01*
X92311496Y-94341993D01*
X92319554Y-94319471D01*
X92329782Y-94297847D01*
X92342079Y-94277330D01*
X92356329Y-94258117D01*
X92372393Y-94240393D01*
X92390117Y-94224329D01*
X92409330Y-94210079D01*
X92429847Y-94197782D01*
X92451471Y-94187554D01*
X92473993Y-94179496D01*
X92497197Y-94173684D01*
X92520858Y-94170174D01*
X92544750Y-94169000D01*
X93032250Y-94169000D01*
X93056142Y-94170174D01*
G37*
G36*
X94931142Y-94170174D02*
G01*
X94954803Y-94173684D01*
X94978007Y-94179496D01*
X95000529Y-94187554D01*
X95022153Y-94197782D01*
X95042670Y-94210079D01*
X95061883Y-94224329D01*
X95079607Y-94240393D01*
X95095671Y-94258117D01*
X95109921Y-94277330D01*
X95122218Y-94297847D01*
X95132446Y-94319471D01*
X95140504Y-94341993D01*
X95146316Y-94365197D01*
X95149826Y-94388858D01*
X95151000Y-94412750D01*
X95151000Y-95325250D01*
X95149826Y-95349142D01*
X95146316Y-95372803D01*
X95140504Y-95396007D01*
X95132446Y-95418529D01*
X95122218Y-95440153D01*
X95109921Y-95460670D01*
X95095671Y-95479883D01*
X95079607Y-95497607D01*
X95061883Y-95513671D01*
X95042670Y-95527921D01*
X95022153Y-95540218D01*
X95000529Y-95550446D01*
X94978007Y-95558504D01*
X94954803Y-95564316D01*
X94931142Y-95567826D01*
X94907250Y-95569000D01*
X94419750Y-95569000D01*
X94395858Y-95567826D01*
X94372197Y-95564316D01*
X94348993Y-95558504D01*
X94326471Y-95550446D01*
X94304847Y-95540218D01*
X94284330Y-95527921D01*
X94265117Y-95513671D01*
X94247393Y-95497607D01*
X94231329Y-95479883D01*
X94217079Y-95460670D01*
X94204782Y-95440153D01*
X94194554Y-95418529D01*
X94186496Y-95396007D01*
X94180684Y-95372803D01*
X94177174Y-95349142D01*
X94176000Y-95325250D01*
X94176000Y-94412750D01*
X94177174Y-94388858D01*
X94180684Y-94365197D01*
X94186496Y-94341993D01*
X94194554Y-94319471D01*
X94204782Y-94297847D01*
X94217079Y-94277330D01*
X94231329Y-94258117D01*
X94247393Y-94240393D01*
X94265117Y-94224329D01*
X94284330Y-94210079D01*
X94304847Y-94197782D01*
X94326471Y-94187554D01*
X94348993Y-94179496D01*
X94372197Y-94173684D01*
X94395858Y-94170174D01*
X94419750Y-94169000D01*
X94907250Y-94169000D01*
X94931142Y-94170174D01*
G37*
G36*
X93056142Y-92138174D02*
G01*
X93079803Y-92141684D01*
X93103007Y-92147496D01*
X93125529Y-92155554D01*
X93147153Y-92165782D01*
X93167670Y-92178079D01*
X93186883Y-92192329D01*
X93204607Y-92208393D01*
X93220671Y-92226117D01*
X93234921Y-92245330D01*
X93247218Y-92265847D01*
X93257446Y-92287471D01*
X93265504Y-92309993D01*
X93271316Y-92333197D01*
X93274826Y-92356858D01*
X93276000Y-92380750D01*
X93276000Y-93293250D01*
X93274826Y-93317142D01*
X93271316Y-93340803D01*
X93265504Y-93364007D01*
X93257446Y-93386529D01*
X93247218Y-93408153D01*
X93234921Y-93428670D01*
X93220671Y-93447883D01*
X93204607Y-93465607D01*
X93186883Y-93481671D01*
X93167670Y-93495921D01*
X93147153Y-93508218D01*
X93125529Y-93518446D01*
X93103007Y-93526504D01*
X93079803Y-93532316D01*
X93056142Y-93535826D01*
X93032250Y-93537000D01*
X92544750Y-93537000D01*
X92520858Y-93535826D01*
X92497197Y-93532316D01*
X92473993Y-93526504D01*
X92451471Y-93518446D01*
X92429847Y-93508218D01*
X92409330Y-93495921D01*
X92390117Y-93481671D01*
X92372393Y-93465607D01*
X92356329Y-93447883D01*
X92342079Y-93428670D01*
X92329782Y-93408153D01*
X92319554Y-93386529D01*
X92311496Y-93364007D01*
X92305684Y-93340803D01*
X92302174Y-93317142D01*
X92301000Y-93293250D01*
X92301000Y-92380750D01*
X92302174Y-92356858D01*
X92305684Y-92333197D01*
X92311496Y-92309993D01*
X92319554Y-92287471D01*
X92329782Y-92265847D01*
X92342079Y-92245330D01*
X92356329Y-92226117D01*
X92372393Y-92208393D01*
X92390117Y-92192329D01*
X92409330Y-92178079D01*
X92429847Y-92165782D01*
X92451471Y-92155554D01*
X92473993Y-92147496D01*
X92497197Y-92141684D01*
X92520858Y-92138174D01*
X92544750Y-92137000D01*
X93032250Y-92137000D01*
X93056142Y-92138174D01*
G37*
G36*
X94931142Y-92138174D02*
G01*
X94954803Y-92141684D01*
X94978007Y-92147496D01*
X95000529Y-92155554D01*
X95022153Y-92165782D01*
X95042670Y-92178079D01*
X95061883Y-92192329D01*
X95079607Y-92208393D01*
X95095671Y-92226117D01*
X95109921Y-92245330D01*
X95122218Y-92265847D01*
X95132446Y-92287471D01*
X95140504Y-92309993D01*
X95146316Y-92333197D01*
X95149826Y-92356858D01*
X95151000Y-92380750D01*
X95151000Y-93293250D01*
X95149826Y-93317142D01*
X95146316Y-93340803D01*
X95140504Y-93364007D01*
X95132446Y-93386529D01*
X95122218Y-93408153D01*
X95109921Y-93428670D01*
X95095671Y-93447883D01*
X95079607Y-93465607D01*
X95061883Y-93481671D01*
X95042670Y-93495921D01*
X95022153Y-93508218D01*
X95000529Y-93518446D01*
X94978007Y-93526504D01*
X94954803Y-93532316D01*
X94931142Y-93535826D01*
X94907250Y-93537000D01*
X94419750Y-93537000D01*
X94395858Y-93535826D01*
X94372197Y-93532316D01*
X94348993Y-93526504D01*
X94326471Y-93518446D01*
X94304847Y-93508218D01*
X94284330Y-93495921D01*
X94265117Y-93481671D01*
X94247393Y-93465607D01*
X94231329Y-93447883D01*
X94217079Y-93428670D01*
X94204782Y-93408153D01*
X94194554Y-93386529D01*
X94186496Y-93364007D01*
X94180684Y-93340803D01*
X94177174Y-93317142D01*
X94176000Y-93293250D01*
X94176000Y-92380750D01*
X94177174Y-92356858D01*
X94180684Y-92333197D01*
X94186496Y-92309993D01*
X94194554Y-92287471D01*
X94204782Y-92265847D01*
X94217079Y-92245330D01*
X94231329Y-92226117D01*
X94247393Y-92208393D01*
X94265117Y-92192329D01*
X94284330Y-92178079D01*
X94304847Y-92165782D01*
X94326471Y-92155554D01*
X94348993Y-92147496D01*
X94372197Y-92141684D01*
X94395858Y-92138174D01*
X94419750Y-92137000D01*
X94907250Y-92137000D01*
X94931142Y-92138174D01*
G37*
G36*
X76389142Y-77914174D02*
G01*
X76412803Y-77917684D01*
X76436007Y-77923496D01*
X76458529Y-77931554D01*
X76480153Y-77941782D01*
X76500670Y-77954079D01*
X76519883Y-77968329D01*
X76537607Y-77984393D01*
X76553671Y-78002117D01*
X76567921Y-78021330D01*
X76580218Y-78041847D01*
X76590446Y-78063471D01*
X76598504Y-78085993D01*
X76604316Y-78109197D01*
X76607826Y-78132858D01*
X76609000Y-78156750D01*
X76609000Y-79069250D01*
X76607826Y-79093142D01*
X76604316Y-79116803D01*
X76598504Y-79140007D01*
X76590446Y-79162529D01*
X76580218Y-79184153D01*
X76567921Y-79204670D01*
X76553671Y-79223883D01*
X76537607Y-79241607D01*
X76519883Y-79257671D01*
X76500670Y-79271921D01*
X76480153Y-79284218D01*
X76458529Y-79294446D01*
X76436007Y-79302504D01*
X76412803Y-79308316D01*
X76389142Y-79311826D01*
X76365250Y-79313000D01*
X75877750Y-79313000D01*
X75853858Y-79311826D01*
X75830197Y-79308316D01*
X75806993Y-79302504D01*
X75784471Y-79294446D01*
X75762847Y-79284218D01*
X75742330Y-79271921D01*
X75723117Y-79257671D01*
X75705393Y-79241607D01*
X75689329Y-79223883D01*
X75675079Y-79204670D01*
X75662782Y-79184153D01*
X75652554Y-79162529D01*
X75644496Y-79140007D01*
X75638684Y-79116803D01*
X75635174Y-79093142D01*
X75634000Y-79069250D01*
X75634000Y-78156750D01*
X75635174Y-78132858D01*
X75638684Y-78109197D01*
X75644496Y-78085993D01*
X75652554Y-78063471D01*
X75662782Y-78041847D01*
X75675079Y-78021330D01*
X75689329Y-78002117D01*
X75705393Y-77984393D01*
X75723117Y-77968329D01*
X75742330Y-77954079D01*
X75762847Y-77941782D01*
X75784471Y-77931554D01*
X75806993Y-77923496D01*
X75830197Y-77917684D01*
X75853858Y-77914174D01*
X75877750Y-77913000D01*
X76365250Y-77913000D01*
X76389142Y-77914174D01*
G37*
G36*
X74514142Y-77914174D02*
G01*
X74537803Y-77917684D01*
X74561007Y-77923496D01*
X74583529Y-77931554D01*
X74605153Y-77941782D01*
X74625670Y-77954079D01*
X74644883Y-77968329D01*
X74662607Y-77984393D01*
X74678671Y-78002117D01*
X74692921Y-78021330D01*
X74705218Y-78041847D01*
X74715446Y-78063471D01*
X74723504Y-78085993D01*
X74729316Y-78109197D01*
X74732826Y-78132858D01*
X74734000Y-78156750D01*
X74734000Y-79069250D01*
X74732826Y-79093142D01*
X74729316Y-79116803D01*
X74723504Y-79140007D01*
X74715446Y-79162529D01*
X74705218Y-79184153D01*
X74692921Y-79204670D01*
X74678671Y-79223883D01*
X74662607Y-79241607D01*
X74644883Y-79257671D01*
X74625670Y-79271921D01*
X74605153Y-79284218D01*
X74583529Y-79294446D01*
X74561007Y-79302504D01*
X74537803Y-79308316D01*
X74514142Y-79311826D01*
X74490250Y-79313000D01*
X74002750Y-79313000D01*
X73978858Y-79311826D01*
X73955197Y-79308316D01*
X73931993Y-79302504D01*
X73909471Y-79294446D01*
X73887847Y-79284218D01*
X73867330Y-79271921D01*
X73848117Y-79257671D01*
X73830393Y-79241607D01*
X73814329Y-79223883D01*
X73800079Y-79204670D01*
X73787782Y-79184153D01*
X73777554Y-79162529D01*
X73769496Y-79140007D01*
X73763684Y-79116803D01*
X73760174Y-79093142D01*
X73759000Y-79069250D01*
X73759000Y-78156750D01*
X73760174Y-78132858D01*
X73763684Y-78109197D01*
X73769496Y-78085993D01*
X73777554Y-78063471D01*
X73787782Y-78041847D01*
X73800079Y-78021330D01*
X73814329Y-78002117D01*
X73830393Y-77984393D01*
X73848117Y-77968329D01*
X73867330Y-77954079D01*
X73887847Y-77941782D01*
X73909471Y-77931554D01*
X73931993Y-77923496D01*
X73955197Y-77917684D01*
X73978858Y-77914174D01*
X74002750Y-77913000D01*
X74490250Y-77913000D01*
X74514142Y-77914174D01*
G37*
G36*
X82903142Y-79826174D02*
G01*
X82926803Y-79829684D01*
X82950007Y-79835496D01*
X82972529Y-79843554D01*
X82994153Y-79853782D01*
X83014670Y-79866079D01*
X83033883Y-79880329D01*
X83051607Y-79896393D01*
X83067671Y-79914117D01*
X83081921Y-79933330D01*
X83094218Y-79953847D01*
X83104446Y-79975471D01*
X83112504Y-79997993D01*
X83118316Y-80021197D01*
X83121826Y-80044858D01*
X83123000Y-80068750D01*
X83123000Y-80556250D01*
X83121826Y-80580142D01*
X83118316Y-80603803D01*
X83112504Y-80627007D01*
X83104446Y-80649529D01*
X83094218Y-80671153D01*
X83081921Y-80691670D01*
X83067671Y-80710883D01*
X83051607Y-80728607D01*
X83033883Y-80744671D01*
X83014670Y-80758921D01*
X82994153Y-80771218D01*
X82972529Y-80781446D01*
X82950007Y-80789504D01*
X82926803Y-80795316D01*
X82903142Y-80798826D01*
X82879250Y-80800000D01*
X81966750Y-80800000D01*
X81942858Y-80798826D01*
X81919197Y-80795316D01*
X81895993Y-80789504D01*
X81873471Y-80781446D01*
X81851847Y-80771218D01*
X81831330Y-80758921D01*
X81812117Y-80744671D01*
X81794393Y-80728607D01*
X81778329Y-80710883D01*
X81764079Y-80691670D01*
X81751782Y-80671153D01*
X81741554Y-80649529D01*
X81733496Y-80627007D01*
X81727684Y-80603803D01*
X81724174Y-80580142D01*
X81723000Y-80556250D01*
X81723000Y-80068750D01*
X81724174Y-80044858D01*
X81727684Y-80021197D01*
X81733496Y-79997993D01*
X81741554Y-79975471D01*
X81751782Y-79953847D01*
X81764079Y-79933330D01*
X81778329Y-79914117D01*
X81794393Y-79896393D01*
X81812117Y-79880329D01*
X81831330Y-79866079D01*
X81851847Y-79853782D01*
X81873471Y-79843554D01*
X81895993Y-79835496D01*
X81919197Y-79829684D01*
X81942858Y-79826174D01*
X81966750Y-79825000D01*
X82879250Y-79825000D01*
X82903142Y-79826174D01*
G37*
G36*
X82903142Y-77951174D02*
G01*
X82926803Y-77954684D01*
X82950007Y-77960496D01*
X82972529Y-77968554D01*
X82994153Y-77978782D01*
X83014670Y-77991079D01*
X83033883Y-78005329D01*
X83051607Y-78021393D01*
X83067671Y-78039117D01*
X83081921Y-78058330D01*
X83094218Y-78078847D01*
X83104446Y-78100471D01*
X83112504Y-78122993D01*
X83118316Y-78146197D01*
X83121826Y-78169858D01*
X83123000Y-78193750D01*
X83123000Y-78681250D01*
X83121826Y-78705142D01*
X83118316Y-78728803D01*
X83112504Y-78752007D01*
X83104446Y-78774529D01*
X83094218Y-78796153D01*
X83081921Y-78816670D01*
X83067671Y-78835883D01*
X83051607Y-78853607D01*
X83033883Y-78869671D01*
X83014670Y-78883921D01*
X82994153Y-78896218D01*
X82972529Y-78906446D01*
X82950007Y-78914504D01*
X82926803Y-78920316D01*
X82903142Y-78923826D01*
X82879250Y-78925000D01*
X81966750Y-78925000D01*
X81942858Y-78923826D01*
X81919197Y-78920316D01*
X81895993Y-78914504D01*
X81873471Y-78906446D01*
X81851847Y-78896218D01*
X81831330Y-78883921D01*
X81812117Y-78869671D01*
X81794393Y-78853607D01*
X81778329Y-78835883D01*
X81764079Y-78816670D01*
X81751782Y-78796153D01*
X81741554Y-78774529D01*
X81733496Y-78752007D01*
X81727684Y-78728803D01*
X81724174Y-78705142D01*
X81723000Y-78681250D01*
X81723000Y-78193750D01*
X81724174Y-78169858D01*
X81727684Y-78146197D01*
X81733496Y-78122993D01*
X81741554Y-78100471D01*
X81751782Y-78078847D01*
X81764079Y-78058330D01*
X81778329Y-78039117D01*
X81794393Y-78021393D01*
X81812117Y-78005329D01*
X81831330Y-77991079D01*
X81851847Y-77978782D01*
X81873471Y-77968554D01*
X81895993Y-77960496D01*
X81919197Y-77954684D01*
X81942858Y-77951174D01*
X81966750Y-77950000D01*
X82879250Y-77950000D01*
X82903142Y-77951174D01*
G37*
G36*
X85485504Y-80786204D02*
G01*
X85509773Y-80789804D01*
X85533571Y-80795765D01*
X85556671Y-80804030D01*
X85578849Y-80814520D01*
X85599893Y-80827133D01*
X85619598Y-80841747D01*
X85637777Y-80858223D01*
X85654253Y-80876402D01*
X85668867Y-80896107D01*
X85681480Y-80917151D01*
X85691970Y-80939329D01*
X85700235Y-80962429D01*
X85706196Y-80986227D01*
X85709796Y-81010496D01*
X85711000Y-81035000D01*
X85711000Y-81785000D01*
X85709796Y-81809504D01*
X85706196Y-81833773D01*
X85700235Y-81857571D01*
X85691970Y-81880671D01*
X85681480Y-81902849D01*
X85668867Y-81923893D01*
X85654253Y-81943598D01*
X85637777Y-81961777D01*
X85619598Y-81978253D01*
X85599893Y-81992867D01*
X85578849Y-82005480D01*
X85556671Y-82015970D01*
X85533571Y-82024235D01*
X85509773Y-82030196D01*
X85485504Y-82033796D01*
X85461000Y-82035000D01*
X84211000Y-82035000D01*
X84186496Y-82033796D01*
X84162227Y-82030196D01*
X84138429Y-82024235D01*
X84115329Y-82015970D01*
X84093151Y-82005480D01*
X84072107Y-81992867D01*
X84052402Y-81978253D01*
X84034223Y-81961777D01*
X84017747Y-81943598D01*
X84003133Y-81923893D01*
X83990520Y-81902849D01*
X83980030Y-81880671D01*
X83971765Y-81857571D01*
X83965804Y-81833773D01*
X83962204Y-81809504D01*
X83961000Y-81785000D01*
X83961000Y-81035000D01*
X83962204Y-81010496D01*
X83965804Y-80986227D01*
X83971765Y-80962429D01*
X83980030Y-80939329D01*
X83990520Y-80917151D01*
X84003133Y-80896107D01*
X84017747Y-80876402D01*
X84034223Y-80858223D01*
X84052402Y-80841747D01*
X84072107Y-80827133D01*
X84093151Y-80814520D01*
X84115329Y-80804030D01*
X84138429Y-80795765D01*
X84162227Y-80789804D01*
X84186496Y-80786204D01*
X84211000Y-80785000D01*
X85461000Y-80785000D01*
X85485504Y-80786204D01*
G37*
G36*
X85485504Y-77986204D02*
G01*
X85509773Y-77989804D01*
X85533571Y-77995765D01*
X85556671Y-78004030D01*
X85578849Y-78014520D01*
X85599893Y-78027133D01*
X85619598Y-78041747D01*
X85637777Y-78058223D01*
X85654253Y-78076402D01*
X85668867Y-78096107D01*
X85681480Y-78117151D01*
X85691970Y-78139329D01*
X85700235Y-78162429D01*
X85706196Y-78186227D01*
X85709796Y-78210496D01*
X85711000Y-78235000D01*
X85711000Y-78985000D01*
X85709796Y-79009504D01*
X85706196Y-79033773D01*
X85700235Y-79057571D01*
X85691970Y-79080671D01*
X85681480Y-79102849D01*
X85668867Y-79123893D01*
X85654253Y-79143598D01*
X85637777Y-79161777D01*
X85619598Y-79178253D01*
X85599893Y-79192867D01*
X85578849Y-79205480D01*
X85556671Y-79215970D01*
X85533571Y-79224235D01*
X85509773Y-79230196D01*
X85485504Y-79233796D01*
X85461000Y-79235000D01*
X84211000Y-79235000D01*
X84186496Y-79233796D01*
X84162227Y-79230196D01*
X84138429Y-79224235D01*
X84115329Y-79215970D01*
X84093151Y-79205480D01*
X84072107Y-79192867D01*
X84052402Y-79178253D01*
X84034223Y-79161777D01*
X84017747Y-79143598D01*
X84003133Y-79123893D01*
X83990520Y-79102849D01*
X83980030Y-79080671D01*
X83971765Y-79057571D01*
X83965804Y-79033773D01*
X83962204Y-79009504D01*
X83961000Y-78985000D01*
X83961000Y-78235000D01*
X83962204Y-78210496D01*
X83965804Y-78186227D01*
X83971765Y-78162429D01*
X83980030Y-78139329D01*
X83990520Y-78117151D01*
X84003133Y-78096107D01*
X84017747Y-78076402D01*
X84034223Y-78058223D01*
X84052402Y-78041747D01*
X84072107Y-78027133D01*
X84093151Y-78014520D01*
X84115329Y-78004030D01*
X84138429Y-77995765D01*
X84162227Y-77989804D01*
X84186496Y-77986204D01*
X84211000Y-77985000D01*
X85461000Y-77985000D01*
X85485504Y-77986204D01*
G37*
G36*
X98263142Y-96837174D02*
G01*
X98286803Y-96840684D01*
X98310007Y-96846496D01*
X98332529Y-96854554D01*
X98354153Y-96864782D01*
X98374670Y-96877079D01*
X98393883Y-96891329D01*
X98411607Y-96907393D01*
X98427671Y-96925117D01*
X98441921Y-96944330D01*
X98454218Y-96964847D01*
X98464446Y-96986471D01*
X98472504Y-97008993D01*
X98478316Y-97032197D01*
X98481826Y-97055858D01*
X98483000Y-97079750D01*
X98483000Y-97992250D01*
X98481826Y-98016142D01*
X98478316Y-98039803D01*
X98472504Y-98063007D01*
X98464446Y-98085529D01*
X98454218Y-98107153D01*
X98441921Y-98127670D01*
X98427671Y-98146883D01*
X98411607Y-98164607D01*
X98393883Y-98180671D01*
X98374670Y-98194921D01*
X98354153Y-98207218D01*
X98332529Y-98217446D01*
X98310007Y-98225504D01*
X98286803Y-98231316D01*
X98263142Y-98234826D01*
X98239250Y-98236000D01*
X97751750Y-98236000D01*
X97727858Y-98234826D01*
X97704197Y-98231316D01*
X97680993Y-98225504D01*
X97658471Y-98217446D01*
X97636847Y-98207218D01*
X97616330Y-98194921D01*
X97597117Y-98180671D01*
X97579393Y-98164607D01*
X97563329Y-98146883D01*
X97549079Y-98127670D01*
X97536782Y-98107153D01*
X97526554Y-98085529D01*
X97518496Y-98063007D01*
X97512684Y-98039803D01*
X97509174Y-98016142D01*
X97508000Y-97992250D01*
X97508000Y-97079750D01*
X97509174Y-97055858D01*
X97512684Y-97032197D01*
X97518496Y-97008993D01*
X97526554Y-96986471D01*
X97536782Y-96964847D01*
X97549079Y-96944330D01*
X97563329Y-96925117D01*
X97579393Y-96907393D01*
X97597117Y-96891329D01*
X97616330Y-96877079D01*
X97636847Y-96864782D01*
X97658471Y-96854554D01*
X97680993Y-96846496D01*
X97704197Y-96840684D01*
X97727858Y-96837174D01*
X97751750Y-96836000D01*
X98239250Y-96836000D01*
X98263142Y-96837174D01*
G37*
G36*
X100138142Y-96837174D02*
G01*
X100161803Y-96840684D01*
X100185007Y-96846496D01*
X100207529Y-96854554D01*
X100229153Y-96864782D01*
X100249670Y-96877079D01*
X100268883Y-96891329D01*
X100286607Y-96907393D01*
X100302671Y-96925117D01*
X100316921Y-96944330D01*
X100329218Y-96964847D01*
X100339446Y-96986471D01*
X100347504Y-97008993D01*
X100353316Y-97032197D01*
X100356826Y-97055858D01*
X100358000Y-97079750D01*
X100358000Y-97992250D01*
X100356826Y-98016142D01*
X100353316Y-98039803D01*
X100347504Y-98063007D01*
X100339446Y-98085529D01*
X100329218Y-98107153D01*
X100316921Y-98127670D01*
X100302671Y-98146883D01*
X100286607Y-98164607D01*
X100268883Y-98180671D01*
X100249670Y-98194921D01*
X100229153Y-98207218D01*
X100207529Y-98217446D01*
X100185007Y-98225504D01*
X100161803Y-98231316D01*
X100138142Y-98234826D01*
X100114250Y-98236000D01*
X99626750Y-98236000D01*
X99602858Y-98234826D01*
X99579197Y-98231316D01*
X99555993Y-98225504D01*
X99533471Y-98217446D01*
X99511847Y-98207218D01*
X99491330Y-98194921D01*
X99472117Y-98180671D01*
X99454393Y-98164607D01*
X99438329Y-98146883D01*
X99424079Y-98127670D01*
X99411782Y-98107153D01*
X99401554Y-98085529D01*
X99393496Y-98063007D01*
X99387684Y-98039803D01*
X99384174Y-98016142D01*
X99383000Y-97992250D01*
X99383000Y-97079750D01*
X99384174Y-97055858D01*
X99387684Y-97032197D01*
X99393496Y-97008993D01*
X99401554Y-96986471D01*
X99411782Y-96964847D01*
X99424079Y-96944330D01*
X99438329Y-96925117D01*
X99454393Y-96907393D01*
X99472117Y-96891329D01*
X99491330Y-96877079D01*
X99511847Y-96864782D01*
X99533471Y-96854554D01*
X99555993Y-96846496D01*
X99579197Y-96840684D01*
X99602858Y-96837174D01*
X99626750Y-96836000D01*
X100114250Y-96836000D01*
X100138142Y-96837174D01*
G37*
G36*
X112621142Y-83031174D02*
G01*
X112644803Y-83034684D01*
X112668007Y-83040496D01*
X112690529Y-83048554D01*
X112712153Y-83058782D01*
X112732670Y-83071079D01*
X112751883Y-83085329D01*
X112769607Y-83101393D01*
X112785671Y-83119117D01*
X112799921Y-83138330D01*
X112812218Y-83158847D01*
X112822446Y-83180471D01*
X112830504Y-83202993D01*
X112836316Y-83226197D01*
X112839826Y-83249858D01*
X112841000Y-83273750D01*
X112841000Y-83761250D01*
X112839826Y-83785142D01*
X112836316Y-83808803D01*
X112830504Y-83832007D01*
X112822446Y-83854529D01*
X112812218Y-83876153D01*
X112799921Y-83896670D01*
X112785671Y-83915883D01*
X112769607Y-83933607D01*
X112751883Y-83949671D01*
X112732670Y-83963921D01*
X112712153Y-83976218D01*
X112690529Y-83986446D01*
X112668007Y-83994504D01*
X112644803Y-84000316D01*
X112621142Y-84003826D01*
X112597250Y-84005000D01*
X111684750Y-84005000D01*
X111660858Y-84003826D01*
X111637197Y-84000316D01*
X111613993Y-83994504D01*
X111591471Y-83986446D01*
X111569847Y-83976218D01*
X111549330Y-83963921D01*
X111530117Y-83949671D01*
X111512393Y-83933607D01*
X111496329Y-83915883D01*
X111482079Y-83896670D01*
X111469782Y-83876153D01*
X111459554Y-83854529D01*
X111451496Y-83832007D01*
X111445684Y-83808803D01*
X111442174Y-83785142D01*
X111441000Y-83761250D01*
X111441000Y-83273750D01*
X111442174Y-83249858D01*
X111445684Y-83226197D01*
X111451496Y-83202993D01*
X111459554Y-83180471D01*
X111469782Y-83158847D01*
X111482079Y-83138330D01*
X111496329Y-83119117D01*
X111512393Y-83101393D01*
X111530117Y-83085329D01*
X111549330Y-83071079D01*
X111569847Y-83058782D01*
X111591471Y-83048554D01*
X111613993Y-83040496D01*
X111637197Y-83034684D01*
X111660858Y-83031174D01*
X111684750Y-83030000D01*
X112597250Y-83030000D01*
X112621142Y-83031174D01*
G37*
G36*
X112621142Y-84906174D02*
G01*
X112644803Y-84909684D01*
X112668007Y-84915496D01*
X112690529Y-84923554D01*
X112712153Y-84933782D01*
X112732670Y-84946079D01*
X112751883Y-84960329D01*
X112769607Y-84976393D01*
X112785671Y-84994117D01*
X112799921Y-85013330D01*
X112812218Y-85033847D01*
X112822446Y-85055471D01*
X112830504Y-85077993D01*
X112836316Y-85101197D01*
X112839826Y-85124858D01*
X112841000Y-85148750D01*
X112841000Y-85636250D01*
X112839826Y-85660142D01*
X112836316Y-85683803D01*
X112830504Y-85707007D01*
X112822446Y-85729529D01*
X112812218Y-85751153D01*
X112799921Y-85771670D01*
X112785671Y-85790883D01*
X112769607Y-85808607D01*
X112751883Y-85824671D01*
X112732670Y-85838921D01*
X112712153Y-85851218D01*
X112690529Y-85861446D01*
X112668007Y-85869504D01*
X112644803Y-85875316D01*
X112621142Y-85878826D01*
X112597250Y-85880000D01*
X111684750Y-85880000D01*
X111660858Y-85878826D01*
X111637197Y-85875316D01*
X111613993Y-85869504D01*
X111591471Y-85861446D01*
X111569847Y-85851218D01*
X111549330Y-85838921D01*
X111530117Y-85824671D01*
X111512393Y-85808607D01*
X111496329Y-85790883D01*
X111482079Y-85771670D01*
X111469782Y-85751153D01*
X111459554Y-85729529D01*
X111451496Y-85707007D01*
X111445684Y-85683803D01*
X111442174Y-85660142D01*
X111441000Y-85636250D01*
X111441000Y-85148750D01*
X111442174Y-85124858D01*
X111445684Y-85101197D01*
X111451496Y-85077993D01*
X111459554Y-85055471D01*
X111469782Y-85033847D01*
X111482079Y-85013330D01*
X111496329Y-84994117D01*
X111512393Y-84976393D01*
X111530117Y-84960329D01*
X111549330Y-84946079D01*
X111569847Y-84933782D01*
X111591471Y-84923554D01*
X111613993Y-84915496D01*
X111637197Y-84909684D01*
X111660858Y-84906174D01*
X111684750Y-84905000D01*
X112597250Y-84905000D01*
X112621142Y-84906174D01*
G37*
G36*
X108296142Y-96837174D02*
G01*
X108319803Y-96840684D01*
X108343007Y-96846496D01*
X108365529Y-96854554D01*
X108387153Y-96864782D01*
X108407670Y-96877079D01*
X108426883Y-96891329D01*
X108444607Y-96907393D01*
X108460671Y-96925117D01*
X108474921Y-96944330D01*
X108487218Y-96964847D01*
X108497446Y-96986471D01*
X108505504Y-97008993D01*
X108511316Y-97032197D01*
X108514826Y-97055858D01*
X108516000Y-97079750D01*
X108516000Y-97992250D01*
X108514826Y-98016142D01*
X108511316Y-98039803D01*
X108505504Y-98063007D01*
X108497446Y-98085529D01*
X108487218Y-98107153D01*
X108474921Y-98127670D01*
X108460671Y-98146883D01*
X108444607Y-98164607D01*
X108426883Y-98180671D01*
X108407670Y-98194921D01*
X108387153Y-98207218D01*
X108365529Y-98217446D01*
X108343007Y-98225504D01*
X108319803Y-98231316D01*
X108296142Y-98234826D01*
X108272250Y-98236000D01*
X107784750Y-98236000D01*
X107760858Y-98234826D01*
X107737197Y-98231316D01*
X107713993Y-98225504D01*
X107691471Y-98217446D01*
X107669847Y-98207218D01*
X107649330Y-98194921D01*
X107630117Y-98180671D01*
X107612393Y-98164607D01*
X107596329Y-98146883D01*
X107582079Y-98127670D01*
X107569782Y-98107153D01*
X107559554Y-98085529D01*
X107551496Y-98063007D01*
X107545684Y-98039803D01*
X107542174Y-98016142D01*
X107541000Y-97992250D01*
X107541000Y-97079750D01*
X107542174Y-97055858D01*
X107545684Y-97032197D01*
X107551496Y-97008993D01*
X107559554Y-96986471D01*
X107569782Y-96964847D01*
X107582079Y-96944330D01*
X107596329Y-96925117D01*
X107612393Y-96907393D01*
X107630117Y-96891329D01*
X107649330Y-96877079D01*
X107669847Y-96864782D01*
X107691471Y-96854554D01*
X107713993Y-96846496D01*
X107737197Y-96840684D01*
X107760858Y-96837174D01*
X107784750Y-96836000D01*
X108272250Y-96836000D01*
X108296142Y-96837174D01*
G37*
G36*
X110171142Y-96837174D02*
G01*
X110194803Y-96840684D01*
X110218007Y-96846496D01*
X110240529Y-96854554D01*
X110262153Y-96864782D01*
X110282670Y-96877079D01*
X110301883Y-96891329D01*
X110319607Y-96907393D01*
X110335671Y-96925117D01*
X110349921Y-96944330D01*
X110362218Y-96964847D01*
X110372446Y-96986471D01*
X110380504Y-97008993D01*
X110386316Y-97032197D01*
X110389826Y-97055858D01*
X110391000Y-97079750D01*
X110391000Y-97992250D01*
X110389826Y-98016142D01*
X110386316Y-98039803D01*
X110380504Y-98063007D01*
X110372446Y-98085529D01*
X110362218Y-98107153D01*
X110349921Y-98127670D01*
X110335671Y-98146883D01*
X110319607Y-98164607D01*
X110301883Y-98180671D01*
X110282670Y-98194921D01*
X110262153Y-98207218D01*
X110240529Y-98217446D01*
X110218007Y-98225504D01*
X110194803Y-98231316D01*
X110171142Y-98234826D01*
X110147250Y-98236000D01*
X109659750Y-98236000D01*
X109635858Y-98234826D01*
X109612197Y-98231316D01*
X109588993Y-98225504D01*
X109566471Y-98217446D01*
X109544847Y-98207218D01*
X109524330Y-98194921D01*
X109505117Y-98180671D01*
X109487393Y-98164607D01*
X109471329Y-98146883D01*
X109457079Y-98127670D01*
X109444782Y-98107153D01*
X109434554Y-98085529D01*
X109426496Y-98063007D01*
X109420684Y-98039803D01*
X109417174Y-98016142D01*
X109416000Y-97992250D01*
X109416000Y-97079750D01*
X109417174Y-97055858D01*
X109420684Y-97032197D01*
X109426496Y-97008993D01*
X109434554Y-96986471D01*
X109444782Y-96964847D01*
X109457079Y-96944330D01*
X109471329Y-96925117D01*
X109487393Y-96907393D01*
X109505117Y-96891329D01*
X109524330Y-96877079D01*
X109544847Y-96864782D01*
X109566471Y-96854554D01*
X109588993Y-96846496D01*
X109612197Y-96840684D01*
X109635858Y-96837174D01*
X109659750Y-96836000D01*
X110147250Y-96836000D01*
X110171142Y-96837174D01*
G37*
G36*
X93056142Y-87185174D02*
G01*
X93079803Y-87188684D01*
X93103007Y-87194496D01*
X93125529Y-87202554D01*
X93147153Y-87212782D01*
X93167670Y-87225079D01*
X93186883Y-87239329D01*
X93204607Y-87255393D01*
X93220671Y-87273117D01*
X93234921Y-87292330D01*
X93247218Y-87312847D01*
X93257446Y-87334471D01*
X93265504Y-87356993D01*
X93271316Y-87380197D01*
X93274826Y-87403858D01*
X93276000Y-87427750D01*
X93276000Y-88340250D01*
X93274826Y-88364142D01*
X93271316Y-88387803D01*
X93265504Y-88411007D01*
X93257446Y-88433529D01*
X93247218Y-88455153D01*
X93234921Y-88475670D01*
X93220671Y-88494883D01*
X93204607Y-88512607D01*
X93186883Y-88528671D01*
X93167670Y-88542921D01*
X93147153Y-88555218D01*
X93125529Y-88565446D01*
X93103007Y-88573504D01*
X93079803Y-88579316D01*
X93056142Y-88582826D01*
X93032250Y-88584000D01*
X92544750Y-88584000D01*
X92520858Y-88582826D01*
X92497197Y-88579316D01*
X92473993Y-88573504D01*
X92451471Y-88565446D01*
X92429847Y-88555218D01*
X92409330Y-88542921D01*
X92390117Y-88528671D01*
X92372393Y-88512607D01*
X92356329Y-88494883D01*
X92342079Y-88475670D01*
X92329782Y-88455153D01*
X92319554Y-88433529D01*
X92311496Y-88411007D01*
X92305684Y-88387803D01*
X92302174Y-88364142D01*
X92301000Y-88340250D01*
X92301000Y-87427750D01*
X92302174Y-87403858D01*
X92305684Y-87380197D01*
X92311496Y-87356993D01*
X92319554Y-87334471D01*
X92329782Y-87312847D01*
X92342079Y-87292330D01*
X92356329Y-87273117D01*
X92372393Y-87255393D01*
X92390117Y-87239329D01*
X92409330Y-87225079D01*
X92429847Y-87212782D01*
X92451471Y-87202554D01*
X92473993Y-87194496D01*
X92497197Y-87188684D01*
X92520858Y-87185174D01*
X92544750Y-87184000D01*
X93032250Y-87184000D01*
X93056142Y-87185174D01*
G37*
G36*
X94931142Y-87185174D02*
G01*
X94954803Y-87188684D01*
X94978007Y-87194496D01*
X95000529Y-87202554D01*
X95022153Y-87212782D01*
X95042670Y-87225079D01*
X95061883Y-87239329D01*
X95079607Y-87255393D01*
X95095671Y-87273117D01*
X95109921Y-87292330D01*
X95122218Y-87312847D01*
X95132446Y-87334471D01*
X95140504Y-87356993D01*
X95146316Y-87380197D01*
X95149826Y-87403858D01*
X95151000Y-87427750D01*
X95151000Y-88340250D01*
X95149826Y-88364142D01*
X95146316Y-88387803D01*
X95140504Y-88411007D01*
X95132446Y-88433529D01*
X95122218Y-88455153D01*
X95109921Y-88475670D01*
X95095671Y-88494883D01*
X95079607Y-88512607D01*
X95061883Y-88528671D01*
X95042670Y-88542921D01*
X95022153Y-88555218D01*
X95000529Y-88565446D01*
X94978007Y-88573504D01*
X94954803Y-88579316D01*
X94931142Y-88582826D01*
X94907250Y-88584000D01*
X94419750Y-88584000D01*
X94395858Y-88582826D01*
X94372197Y-88579316D01*
X94348993Y-88573504D01*
X94326471Y-88565446D01*
X94304847Y-88555218D01*
X94284330Y-88542921D01*
X94265117Y-88528671D01*
X94247393Y-88512607D01*
X94231329Y-88494883D01*
X94217079Y-88475670D01*
X94204782Y-88455153D01*
X94194554Y-88433529D01*
X94186496Y-88411007D01*
X94180684Y-88387803D01*
X94177174Y-88364142D01*
X94176000Y-88340250D01*
X94176000Y-87427750D01*
X94177174Y-87403858D01*
X94180684Y-87380197D01*
X94186496Y-87356993D01*
X94194554Y-87334471D01*
X94204782Y-87312847D01*
X94217079Y-87292330D01*
X94231329Y-87273117D01*
X94247393Y-87255393D01*
X94265117Y-87239329D01*
X94284330Y-87225079D01*
X94304847Y-87212782D01*
X94326471Y-87202554D01*
X94348993Y-87194496D01*
X94372197Y-87188684D01*
X94395858Y-87185174D01*
X94419750Y-87184000D01*
X94907250Y-87184000D01*
X94931142Y-87185174D01*
G37*
G36*
X93056142Y-89471174D02*
G01*
X93079803Y-89474684D01*
X93103007Y-89480496D01*
X93125529Y-89488554D01*
X93147153Y-89498782D01*
X93167670Y-89511079D01*
X93186883Y-89525329D01*
X93204607Y-89541393D01*
X93220671Y-89559117D01*
X93234921Y-89578330D01*
X93247218Y-89598847D01*
X93257446Y-89620471D01*
X93265504Y-89642993D01*
X93271316Y-89666197D01*
X93274826Y-89689858D01*
X93276000Y-89713750D01*
X93276000Y-90626250D01*
X93274826Y-90650142D01*
X93271316Y-90673803D01*
X93265504Y-90697007D01*
X93257446Y-90719529D01*
X93247218Y-90741153D01*
X93234921Y-90761670D01*
X93220671Y-90780883D01*
X93204607Y-90798607D01*
X93186883Y-90814671D01*
X93167670Y-90828921D01*
X93147153Y-90841218D01*
X93125529Y-90851446D01*
X93103007Y-90859504D01*
X93079803Y-90865316D01*
X93056142Y-90868826D01*
X93032250Y-90870000D01*
X92544750Y-90870000D01*
X92520858Y-90868826D01*
X92497197Y-90865316D01*
X92473993Y-90859504D01*
X92451471Y-90851446D01*
X92429847Y-90841218D01*
X92409330Y-90828921D01*
X92390117Y-90814671D01*
X92372393Y-90798607D01*
X92356329Y-90780883D01*
X92342079Y-90761670D01*
X92329782Y-90741153D01*
X92319554Y-90719529D01*
X92311496Y-90697007D01*
X92305684Y-90673803D01*
X92302174Y-90650142D01*
X92301000Y-90626250D01*
X92301000Y-89713750D01*
X92302174Y-89689858D01*
X92305684Y-89666197D01*
X92311496Y-89642993D01*
X92319554Y-89620471D01*
X92329782Y-89598847D01*
X92342079Y-89578330D01*
X92356329Y-89559117D01*
X92372393Y-89541393D01*
X92390117Y-89525329D01*
X92409330Y-89511079D01*
X92429847Y-89498782D01*
X92451471Y-89488554D01*
X92473993Y-89480496D01*
X92497197Y-89474684D01*
X92520858Y-89471174D01*
X92544750Y-89470000D01*
X93032250Y-89470000D01*
X93056142Y-89471174D01*
G37*
G36*
X94931142Y-89471174D02*
G01*
X94954803Y-89474684D01*
X94978007Y-89480496D01*
X95000529Y-89488554D01*
X95022153Y-89498782D01*
X95042670Y-89511079D01*
X95061883Y-89525329D01*
X95079607Y-89541393D01*
X95095671Y-89559117D01*
X95109921Y-89578330D01*
X95122218Y-89598847D01*
X95132446Y-89620471D01*
X95140504Y-89642993D01*
X95146316Y-89666197D01*
X95149826Y-89689858D01*
X95151000Y-89713750D01*
X95151000Y-90626250D01*
X95149826Y-90650142D01*
X95146316Y-90673803D01*
X95140504Y-90697007D01*
X95132446Y-90719529D01*
X95122218Y-90741153D01*
X95109921Y-90761670D01*
X95095671Y-90780883D01*
X95079607Y-90798607D01*
X95061883Y-90814671D01*
X95042670Y-90828921D01*
X95022153Y-90841218D01*
X95000529Y-90851446D01*
X94978007Y-90859504D01*
X94954803Y-90865316D01*
X94931142Y-90868826D01*
X94907250Y-90870000D01*
X94419750Y-90870000D01*
X94395858Y-90868826D01*
X94372197Y-90865316D01*
X94348993Y-90859504D01*
X94326471Y-90851446D01*
X94304847Y-90841218D01*
X94284330Y-90828921D01*
X94265117Y-90814671D01*
X94247393Y-90798607D01*
X94231329Y-90780883D01*
X94217079Y-90761670D01*
X94204782Y-90741153D01*
X94194554Y-90719529D01*
X94186496Y-90697007D01*
X94180684Y-90673803D01*
X94177174Y-90650142D01*
X94176000Y-90626250D01*
X94176000Y-89713750D01*
X94177174Y-89689858D01*
X94180684Y-89666197D01*
X94186496Y-89642993D01*
X94194554Y-89620471D01*
X94204782Y-89598847D01*
X94217079Y-89578330D01*
X94231329Y-89559117D01*
X94247393Y-89541393D01*
X94265117Y-89525329D01*
X94284330Y-89511079D01*
X94304847Y-89498782D01*
X94326471Y-89488554D01*
X94348993Y-89480496D01*
X94372197Y-89474684D01*
X94395858Y-89471174D01*
X94419750Y-89470000D01*
X94907250Y-89470000D01*
X94931142Y-89471174D01*
G37*
G36*
X100429142Y-78810174D02*
G01*
X100452803Y-78813684D01*
X100476007Y-78819496D01*
X100498529Y-78827554D01*
X100520153Y-78837782D01*
X100540670Y-78850079D01*
X100559883Y-78864329D01*
X100577607Y-78880393D01*
X100593671Y-78898117D01*
X100607921Y-78917330D01*
X100620218Y-78937847D01*
X100630446Y-78959471D01*
X100638504Y-78981993D01*
X100644316Y-79005197D01*
X100647826Y-79028858D01*
X100649000Y-79052750D01*
X100649000Y-79540250D01*
X100647826Y-79564142D01*
X100644316Y-79587803D01*
X100638504Y-79611007D01*
X100630446Y-79633529D01*
X100620218Y-79655153D01*
X100607921Y-79675670D01*
X100593671Y-79694883D01*
X100577607Y-79712607D01*
X100559883Y-79728671D01*
X100540670Y-79742921D01*
X100520153Y-79755218D01*
X100498529Y-79765446D01*
X100476007Y-79773504D01*
X100452803Y-79779316D01*
X100429142Y-79782826D01*
X100405250Y-79784000D01*
X99492750Y-79784000D01*
X99468858Y-79782826D01*
X99445197Y-79779316D01*
X99421993Y-79773504D01*
X99399471Y-79765446D01*
X99377847Y-79755218D01*
X99357330Y-79742921D01*
X99338117Y-79728671D01*
X99320393Y-79712607D01*
X99304329Y-79694883D01*
X99290079Y-79675670D01*
X99277782Y-79655153D01*
X99267554Y-79633529D01*
X99259496Y-79611007D01*
X99253684Y-79587803D01*
X99250174Y-79564142D01*
X99249000Y-79540250D01*
X99249000Y-79052750D01*
X99250174Y-79028858D01*
X99253684Y-79005197D01*
X99259496Y-78981993D01*
X99267554Y-78959471D01*
X99277782Y-78937847D01*
X99290079Y-78917330D01*
X99304329Y-78898117D01*
X99320393Y-78880393D01*
X99338117Y-78864329D01*
X99357330Y-78850079D01*
X99377847Y-78837782D01*
X99399471Y-78827554D01*
X99421993Y-78819496D01*
X99445197Y-78813684D01*
X99468858Y-78810174D01*
X99492750Y-78809000D01*
X100405250Y-78809000D01*
X100429142Y-78810174D01*
G37*
G36*
X100429142Y-76935174D02*
G01*
X100452803Y-76938684D01*
X100476007Y-76944496D01*
X100498529Y-76952554D01*
X100520153Y-76962782D01*
X100540670Y-76975079D01*
X100559883Y-76989329D01*
X100577607Y-77005393D01*
X100593671Y-77023117D01*
X100607921Y-77042330D01*
X100620218Y-77062847D01*
X100630446Y-77084471D01*
X100638504Y-77106993D01*
X100644316Y-77130197D01*
X100647826Y-77153858D01*
X100649000Y-77177750D01*
X100649000Y-77665250D01*
X100647826Y-77689142D01*
X100644316Y-77712803D01*
X100638504Y-77736007D01*
X100630446Y-77758529D01*
X100620218Y-77780153D01*
X100607921Y-77800670D01*
X100593671Y-77819883D01*
X100577607Y-77837607D01*
X100559883Y-77853671D01*
X100540670Y-77867921D01*
X100520153Y-77880218D01*
X100498529Y-77890446D01*
X100476007Y-77898504D01*
X100452803Y-77904316D01*
X100429142Y-77907826D01*
X100405250Y-77909000D01*
X99492750Y-77909000D01*
X99468858Y-77907826D01*
X99445197Y-77904316D01*
X99421993Y-77898504D01*
X99399471Y-77890446D01*
X99377847Y-77880218D01*
X99357330Y-77867921D01*
X99338117Y-77853671D01*
X99320393Y-77837607D01*
X99304329Y-77819883D01*
X99290079Y-77800670D01*
X99277782Y-77780153D01*
X99267554Y-77758529D01*
X99259496Y-77736007D01*
X99253684Y-77712803D01*
X99250174Y-77689142D01*
X99249000Y-77665250D01*
X99249000Y-77177750D01*
X99250174Y-77153858D01*
X99253684Y-77130197D01*
X99259496Y-77106993D01*
X99267554Y-77084471D01*
X99277782Y-77062847D01*
X99290079Y-77042330D01*
X99304329Y-77023117D01*
X99320393Y-77005393D01*
X99338117Y-76989329D01*
X99357330Y-76975079D01*
X99377847Y-76962782D01*
X99399471Y-76952554D01*
X99421993Y-76944496D01*
X99445197Y-76938684D01*
X99468858Y-76935174D01*
X99492750Y-76934000D01*
X100405250Y-76934000D01*
X100429142Y-76935174D01*
G37*
G36*
X107287142Y-76935174D02*
G01*
X107310803Y-76938684D01*
X107334007Y-76944496D01*
X107356529Y-76952554D01*
X107378153Y-76962782D01*
X107398670Y-76975079D01*
X107417883Y-76989329D01*
X107435607Y-77005393D01*
X107451671Y-77023117D01*
X107465921Y-77042330D01*
X107478218Y-77062847D01*
X107488446Y-77084471D01*
X107496504Y-77106993D01*
X107502316Y-77130197D01*
X107505826Y-77153858D01*
X107507000Y-77177750D01*
X107507000Y-77665250D01*
X107505826Y-77689142D01*
X107502316Y-77712803D01*
X107496504Y-77736007D01*
X107488446Y-77758529D01*
X107478218Y-77780153D01*
X107465921Y-77800670D01*
X107451671Y-77819883D01*
X107435607Y-77837607D01*
X107417883Y-77853671D01*
X107398670Y-77867921D01*
X107378153Y-77880218D01*
X107356529Y-77890446D01*
X107334007Y-77898504D01*
X107310803Y-77904316D01*
X107287142Y-77907826D01*
X107263250Y-77909000D01*
X106350750Y-77909000D01*
X106326858Y-77907826D01*
X106303197Y-77904316D01*
X106279993Y-77898504D01*
X106257471Y-77890446D01*
X106235847Y-77880218D01*
X106215330Y-77867921D01*
X106196117Y-77853671D01*
X106178393Y-77837607D01*
X106162329Y-77819883D01*
X106148079Y-77800670D01*
X106135782Y-77780153D01*
X106125554Y-77758529D01*
X106117496Y-77736007D01*
X106111684Y-77712803D01*
X106108174Y-77689142D01*
X106107000Y-77665250D01*
X106107000Y-77177750D01*
X106108174Y-77153858D01*
X106111684Y-77130197D01*
X106117496Y-77106993D01*
X106125554Y-77084471D01*
X106135782Y-77062847D01*
X106148079Y-77042330D01*
X106162329Y-77023117D01*
X106178393Y-77005393D01*
X106196117Y-76989329D01*
X106215330Y-76975079D01*
X106235847Y-76962782D01*
X106257471Y-76952554D01*
X106279993Y-76944496D01*
X106303197Y-76938684D01*
X106326858Y-76935174D01*
X106350750Y-76934000D01*
X107263250Y-76934000D01*
X107287142Y-76935174D01*
G37*
G36*
X107287142Y-78810174D02*
G01*
X107310803Y-78813684D01*
X107334007Y-78819496D01*
X107356529Y-78827554D01*
X107378153Y-78837782D01*
X107398670Y-78850079D01*
X107417883Y-78864329D01*
X107435607Y-78880393D01*
X107451671Y-78898117D01*
X107465921Y-78917330D01*
X107478218Y-78937847D01*
X107488446Y-78959471D01*
X107496504Y-78981993D01*
X107502316Y-79005197D01*
X107505826Y-79028858D01*
X107507000Y-79052750D01*
X107507000Y-79540250D01*
X107505826Y-79564142D01*
X107502316Y-79587803D01*
X107496504Y-79611007D01*
X107488446Y-79633529D01*
X107478218Y-79655153D01*
X107465921Y-79675670D01*
X107451671Y-79694883D01*
X107435607Y-79712607D01*
X107417883Y-79728671D01*
X107398670Y-79742921D01*
X107378153Y-79755218D01*
X107356529Y-79765446D01*
X107334007Y-79773504D01*
X107310803Y-79779316D01*
X107287142Y-79782826D01*
X107263250Y-79784000D01*
X106350750Y-79784000D01*
X106326858Y-79782826D01*
X106303197Y-79779316D01*
X106279993Y-79773504D01*
X106257471Y-79765446D01*
X106235847Y-79755218D01*
X106215330Y-79742921D01*
X106196117Y-79728671D01*
X106178393Y-79712607D01*
X106162329Y-79694883D01*
X106148079Y-79675670D01*
X106135782Y-79655153D01*
X106125554Y-79633529D01*
X106117496Y-79611007D01*
X106111684Y-79587803D01*
X106108174Y-79564142D01*
X106107000Y-79540250D01*
X106107000Y-79052750D01*
X106108174Y-79028858D01*
X106111684Y-79005197D01*
X106117496Y-78981993D01*
X106125554Y-78959471D01*
X106135782Y-78937847D01*
X106148079Y-78917330D01*
X106162329Y-78898117D01*
X106178393Y-78880393D01*
X106196117Y-78864329D01*
X106215330Y-78850079D01*
X106235847Y-78837782D01*
X106257471Y-78827554D01*
X106279993Y-78819496D01*
X106303197Y-78813684D01*
X106326858Y-78810174D01*
X106350750Y-78809000D01*
X107263250Y-78809000D01*
X107287142Y-78810174D01*
G37*
M02*
